G04*
G04 #@! TF.GenerationSoftware,Altium Limited,Altium Designer,22.10.1 (41)*
G04*
G04 Layer_Color=255*
%FSLAX25Y25*%
%MOIN*%
G70*
G04*
G04 #@! TF.SameCoordinates,10B0A499-9DE9-419A-BA03-DC6469FBBFFB*
G04*
G04*
G04 #@! TF.FilePolarity,Positive*
G04*
G01*
G75*
%ADD15R,0.03543X0.02402*%
%ADD16R,0.19685X0.05512*%
%ADD17R,0.03740X0.03347*%
%ADD18R,0.05118X0.05512*%
%ADD19R,0.03150X0.03543*%
%ADD20R,0.02126X0.01890*%
%ADD21R,0.03543X0.03937*%
%ADD22R,0.03937X0.03543*%
%ADD23C,0.14016*%
%ADD24R,0.01890X0.02126*%
%ADD25R,0.02126X0.02165*%
%ADD26R,0.02165X0.02126*%
%ADD27R,0.02953X0.02362*%
%ADD28R,0.04449X0.02992*%
%ADD29R,0.03347X0.03740*%
%ADD30R,0.03543X0.03543*%
%ADD31R,0.06693X0.06693*%
%ADD32R,0.01181X0.03110*%
%ADD33R,0.03110X0.01181*%
%ADD34R,0.02953X0.02362*%
%ADD35R,0.06693X0.06693*%
%ADD36R,0.01181X0.02953*%
%ADD37R,0.02953X0.01181*%
%ADD38R,0.05315X0.04528*%
%ADD39R,0.02362X0.02953*%
%ADD40R,0.10630X0.10630*%
G04:AMPARAMS|DCode=41|XSize=12.01mil|YSize=27.56mil|CornerRadius=6mil|HoleSize=0mil|Usage=FLASHONLY|Rotation=0.000|XOffset=0mil|YOffset=0mil|HoleType=Round|Shape=RoundedRectangle|*
%AMROUNDEDRECTD41*
21,1,0.01201,0.01555,0,0,0.0*
21,1,0.00000,0.02756,0,0,0.0*
1,1,0.01201,0.00000,-0.00778*
1,1,0.01201,0.00000,-0.00778*
1,1,0.01201,0.00000,0.00778*
1,1,0.01201,0.00000,0.00778*
%
%ADD41ROUNDEDRECTD41*%
G04:AMPARAMS|DCode=42|XSize=27.56mil|YSize=12.01mil|CornerRadius=6mil|HoleSize=0mil|Usage=FLASHONLY|Rotation=0.000|XOffset=0mil|YOffset=0mil|HoleType=Round|Shape=RoundedRectangle|*
%AMROUNDEDRECTD42*
21,1,0.02756,0.00000,0,0,0.0*
21,1,0.01555,0.01201,0,0,0.0*
1,1,0.01201,0.00778,0.00000*
1,1,0.01201,-0.00778,0.00000*
1,1,0.01201,-0.00778,0.00000*
1,1,0.01201,0.00778,0.00000*
%
%ADD42ROUNDEDRECTD42*%
%ADD83C,0.13780*%
%ADD84C,0.15748*%
D15*
X1773Y137370D02*
D03*
X206196Y137500D02*
D03*
X147295Y293073D02*
D03*
X1771D02*
D03*
Y451592D02*
D03*
X117574Y450553D02*
D03*
Y564726D02*
D03*
X1771D02*
D03*
D16*
X9843Y148000D02*
D03*
Y126740D02*
D03*
X198126Y126870D02*
D03*
Y148130D02*
D03*
X139224Y282443D02*
D03*
Y303702D02*
D03*
X9842D02*
D03*
Y282443D02*
D03*
Y462222D02*
D03*
Y440962D02*
D03*
X109503Y439923D02*
D03*
Y461183D02*
D03*
Y575356D02*
D03*
Y554096D02*
D03*
X9842D02*
D03*
Y575356D02*
D03*
D17*
X54814Y268651D02*
D03*
Y273769D02*
D03*
X80503Y319092D02*
D03*
Y313974D02*
D03*
X40503Y334033D02*
D03*
Y339151D02*
D03*
X50503Y334033D02*
D03*
Y339151D02*
D03*
X81003Y250033D02*
D03*
Y255151D02*
D03*
X80503Y269033D02*
D03*
Y274151D02*
D03*
Y333533D02*
D03*
Y338651D02*
D03*
X34503Y467033D02*
D03*
Y472151D02*
D03*
X54857Y256913D02*
D03*
Y262031D02*
D03*
X112554Y183048D02*
D03*
Y177930D02*
D03*
X82554Y183548D02*
D03*
Y178430D02*
D03*
X72554Y183548D02*
D03*
Y178430D02*
D03*
X112554Y158371D02*
D03*
Y163489D02*
D03*
X86865Y118166D02*
D03*
Y113048D02*
D03*
X112554Y118548D02*
D03*
Y113430D02*
D03*
X86907Y106428D02*
D03*
Y101310D02*
D03*
X113054Y99548D02*
D03*
Y94430D02*
D03*
D18*
X122404Y182989D02*
D03*
X128703D02*
D03*
X96653Y338592D02*
D03*
X90354D02*
D03*
D19*
X48729Y470644D02*
D03*
X43808D02*
D03*
X65464Y577092D02*
D03*
X60543D02*
D03*
X41964Y316592D02*
D03*
X37043D02*
D03*
X55964Y319592D02*
D03*
X51043D02*
D03*
X40543Y432092D02*
D03*
X45464D02*
D03*
X82543Y466092D02*
D03*
X87464D02*
D03*
X71043Y472592D02*
D03*
X75964D02*
D03*
X83093Y163989D02*
D03*
X88014D02*
D03*
X69093Y160989D02*
D03*
X74014D02*
D03*
D20*
X70110Y451196D02*
D03*
Y454660D02*
D03*
X50503Y438360D02*
D03*
Y441824D02*
D03*
D21*
X50346Y327092D02*
D03*
X55661D02*
D03*
X34846Y325092D02*
D03*
X40161D02*
D03*
X86161Y262092D02*
D03*
X80846D02*
D03*
X45161Y424092D02*
D03*
X39846D02*
D03*
X90161Y473592D02*
D03*
X84846D02*
D03*
X87711Y171489D02*
D03*
X82396D02*
D03*
X72211Y169489D02*
D03*
X66896D02*
D03*
X112896Y106489D02*
D03*
X118211D02*
D03*
D22*
X65504Y339435D02*
D03*
Y344750D02*
D03*
X97554Y189147D02*
D03*
Y183832D02*
D03*
D23*
X81500Y602000D02*
D03*
X114504Y257592D02*
D03*
X25000Y411500D02*
D03*
X34000Y489500D02*
D03*
X33500Y602000D02*
D03*
X84000Y489500D02*
D03*
X84000Y419555D02*
D03*
X28000Y256000D02*
D03*
X91000Y355000D02*
D03*
X122771Y199073D02*
D03*
X51271Y102573D02*
D03*
X150271D02*
D03*
D24*
X57236Y304092D02*
D03*
X53771D02*
D03*
X85821Y148489D02*
D03*
X89286D02*
D03*
D25*
X61503Y313128D02*
D03*
Y310057D02*
D03*
X53798Y311810D02*
D03*
Y308739D02*
D03*
X54434Y467038D02*
D03*
Y463967D02*
D03*
X70503Y463557D02*
D03*
Y466628D02*
D03*
X93554Y154454D02*
D03*
Y157525D02*
D03*
X85848Y153136D02*
D03*
Y156207D02*
D03*
D26*
X78311Y450760D02*
D03*
X75240D02*
D03*
X45539Y438092D02*
D03*
X42468D02*
D03*
X39039Y451592D02*
D03*
X35968D02*
D03*
X79539Y459092D02*
D03*
X76468D02*
D03*
D27*
X87025Y293073D02*
D03*
X91946D02*
D03*
X17040D02*
D03*
X12118D02*
D03*
X51461D02*
D03*
X56382D02*
D03*
X25959Y137370D02*
D03*
X30880D02*
D03*
X114340Y137469D02*
D03*
X119262D02*
D03*
X83690Y137428D02*
D03*
X88611D02*
D03*
D28*
X67503Y313037D02*
D03*
Y306147D02*
D03*
X99554Y150544D02*
D03*
Y157434D02*
D03*
D29*
X75444Y306592D02*
D03*
X80563D02*
D03*
X107495Y150989D02*
D03*
X112613D02*
D03*
D30*
X121432Y293073D02*
D03*
X127731D02*
D03*
X179305Y137469D02*
D03*
X185604D02*
D03*
D31*
X56825Y564726D02*
D03*
D32*
X55526Y570573D02*
D03*
X58125D02*
D03*
Y558880D02*
D03*
X55526D02*
D03*
D33*
X62672Y566025D02*
D03*
Y563427D02*
D03*
X50979D02*
D03*
Y566025D02*
D03*
D34*
X43240Y461092D02*
D03*
X47767D02*
D03*
D35*
X58003Y450553D02*
D03*
D36*
X55051Y456458D02*
D03*
X57019D02*
D03*
X58988D02*
D03*
X60956D02*
D03*
Y444647D02*
D03*
X58988D02*
D03*
X57019D02*
D03*
X55051D02*
D03*
D37*
X63909Y453506D02*
D03*
Y451537D02*
D03*
Y449569D02*
D03*
Y447600D02*
D03*
X52098D02*
D03*
Y449569D02*
D03*
Y451537D02*
D03*
Y453506D02*
D03*
D38*
X53504Y577147D02*
D03*
Y584037D02*
D03*
D39*
X59504Y461328D02*
D03*
Y465856D02*
D03*
X65342Y461289D02*
D03*
Y465816D02*
D03*
D40*
X67401Y293073D02*
D03*
X99451Y137469D02*
D03*
D41*
X63464Y300454D02*
D03*
X65432D02*
D03*
X67401D02*
D03*
X69369D02*
D03*
X71338D02*
D03*
Y285691D02*
D03*
X69369D02*
D03*
X67401D02*
D03*
X65432D02*
D03*
X63464D02*
D03*
X95514Y130088D02*
D03*
X97483D02*
D03*
X99451D02*
D03*
X101419D02*
D03*
X103388D02*
D03*
Y144851D02*
D03*
X101419D02*
D03*
X99451D02*
D03*
X97483D02*
D03*
X95514D02*
D03*
D42*
X74783Y297009D02*
D03*
Y295041D02*
D03*
Y293073D02*
D03*
Y291104D02*
D03*
Y289136D02*
D03*
X60019D02*
D03*
Y291104D02*
D03*
Y293073D02*
D03*
Y295041D02*
D03*
Y297009D02*
D03*
X92069Y141407D02*
D03*
Y139438D02*
D03*
Y137469D02*
D03*
Y135501D02*
D03*
Y133533D02*
D03*
X106833D02*
D03*
Y135501D02*
D03*
Y137469D02*
D03*
Y139438D02*
D03*
Y141407D02*
D03*
D83*
X99950Y116720D02*
D03*
Y167114D02*
D03*
X67901Y322600D02*
D03*
X67901Y272206D02*
D03*
D84*
X58003Y428198D02*
D03*
X56826Y595632D02*
D03*
X58003Y478986D02*
D03*
X56826Y545238D02*
D03*
M02*
