G04*
G04 #@! TF.GenerationSoftware,Altium Limited,Altium Designer,22.10.1 (41)*
G04*
G04 Layer_Physical_Order=1*
G04 Layer_Color=255*
%FSLAX25Y25*%
%MOIN*%
G70*
G04*
G04 #@! TF.SameCoordinates,10B0A499-9DE9-419A-BA03-DC6469FBBFFB*
G04*
G04*
G04 #@! TF.FilePolarity,Positive*
G04*
G01*
G75*
%ADD15R,0.03543X0.02402*%
%ADD16R,0.19685X0.05512*%
%ADD17R,0.03740X0.03347*%
%ADD18R,0.05118X0.05512*%
%ADD19R,0.03150X0.03543*%
%ADD20R,0.02126X0.01890*%
%ADD21R,0.03543X0.03937*%
%ADD22R,0.03937X0.03543*%
%ADD23C,0.14016*%
%ADD24R,0.01890X0.02126*%
%ADD25R,0.02126X0.02165*%
%ADD26R,0.02165X0.02126*%
%ADD27R,0.02953X0.02362*%
%ADD28R,0.04449X0.02992*%
%ADD29R,0.03347X0.03740*%
%ADD30R,0.03543X0.03543*%
%ADD31R,0.06693X0.06693*%
%ADD32R,0.01181X0.03110*%
%ADD33R,0.03110X0.01181*%
%ADD34R,0.02953X0.02362*%
%ADD35R,0.06693X0.06693*%
%ADD36R,0.01181X0.02953*%
%ADD37R,0.02953X0.01181*%
%ADD38R,0.05315X0.04528*%
%ADD39R,0.02362X0.02953*%
%ADD40R,0.10630X0.10630*%
G04:AMPARAMS|DCode=41|XSize=12.01mil|YSize=27.56mil|CornerRadius=6mil|HoleSize=0mil|Usage=FLASHONLY|Rotation=0.000|XOffset=0mil|YOffset=0mil|HoleType=Round|Shape=RoundedRectangle|*
%AMROUNDEDRECTD41*
21,1,0.01201,0.01555,0,0,0.0*
21,1,0.00000,0.02756,0,0,0.0*
1,1,0.01201,0.00000,-0.00778*
1,1,0.01201,0.00000,-0.00778*
1,1,0.01201,0.00000,0.00778*
1,1,0.01201,0.00000,0.00778*
%
%ADD41ROUNDEDRECTD41*%
G04:AMPARAMS|DCode=42|XSize=27.56mil|YSize=12.01mil|CornerRadius=6mil|HoleSize=0mil|Usage=FLASHONLY|Rotation=0.000|XOffset=0mil|YOffset=0mil|HoleType=Round|Shape=RoundedRectangle|*
%AMROUNDEDRECTD42*
21,1,0.02756,0.00000,0,0,0.0*
21,1,0.01555,0.01201,0,0,0.0*
1,1,0.01201,0.00778,0.00000*
1,1,0.01201,-0.00778,0.00000*
1,1,0.01201,-0.00778,0.00000*
1,1,0.01201,0.00778,0.00000*
%
%ADD42ROUNDEDRECTD42*%
%ADD76C,0.01575*%
%ADD77C,0.01142*%
%ADD78C,0.01181*%
%ADD79C,0.01408*%
%ADD80C,0.01968*%
%ADD81C,0.03150*%
%ADD82C,0.03937*%
%ADD83C,0.13780*%
%ADD84C,0.15748*%
%ADD85C,0.02362*%
G36*
X64478Y565426D02*
X64475Y564027D01*
X64158Y563711D01*
X61295D01*
X61176Y563830D01*
Y565919D01*
X63985D01*
X64478Y565426D01*
D02*
G37*
G36*
X52479Y563696D02*
X52477Y563694D01*
X52312Y563858D01*
X49459D01*
X49285Y564032D01*
X49266Y565434D01*
X49432Y565600D01*
X52479D01*
Y563696D01*
D02*
G37*
G36*
X117339Y573069D02*
X116839Y572709D01*
X115792D01*
X115779Y567428D01*
X62255D01*
X62064Y567403D01*
X60329D01*
Y566613D01*
X59921Y566081D01*
X59651Y565430D01*
X59559Y564733D01*
X59651Y564035D01*
X59921Y563385D01*
X60329Y562852D01*
Y562049D01*
X62164D01*
X62255Y562037D01*
X115411D01*
X115764Y561683D01*
X115751Y556857D01*
X116839Y556857D01*
X117339Y556497D01*
X117339Y458539D01*
X115770D01*
X115771Y453706D01*
X115417Y453352D01*
X79037D01*
X79008Y453364D01*
X78311Y453456D01*
X77613Y453364D01*
X76963Y453095D01*
X76775Y452951D01*
X76588Y453095D01*
X75937Y453364D01*
X75240Y453456D01*
X71960D01*
Y455905D01*
X73340Y457286D01*
X74598D01*
Y457242D01*
X78338D01*
Y460943D01*
X78274D01*
Y461720D01*
X79811Y463256D01*
X80181Y463533D01*
Y463533D01*
X80181Y463533D01*
X84905D01*
Y468651D01*
X84349D01*
Y470344D01*
X84842Y470836D01*
X87405D01*
Y476348D01*
X86229D01*
Y481995D01*
X86274Y482004D01*
X87692Y482592D01*
X88969Y483445D01*
X90055Y484531D01*
X90908Y485808D01*
X91496Y487226D01*
X91795Y488732D01*
Y490268D01*
X91496Y491774D01*
X90908Y493192D01*
X90055Y494469D01*
X88969Y495555D01*
X87692Y496408D01*
X86274Y496996D01*
X84768Y497295D01*
X83232D01*
X81726Y496996D01*
X80308Y496408D01*
X79031Y495555D01*
X77945Y494469D01*
X77092Y493192D01*
X76504Y491774D01*
X76205Y490268D01*
Y488732D01*
X76504Y487226D01*
X77092Y485808D01*
X77357Y485411D01*
X69766Y477820D01*
X69374Y477234D01*
X69236Y476543D01*
Y475151D01*
X68681D01*
Y470033D01*
X68694D01*
Y468498D01*
X68653D01*
Y468434D01*
X66153D01*
X65462Y468296D01*
X65138Y468080D01*
X63377D01*
X63303Y468124D01*
X61408D01*
X61403Y468120D01*
X60089D01*
X59925Y468284D01*
X59339Y468676D01*
X58648Y468813D01*
X56284D01*
Y468908D01*
X54530D01*
X54355Y468943D01*
X53273D01*
X51091Y471124D01*
Y473203D01*
X49990D01*
X39359Y483835D01*
X40055Y484531D01*
X40908Y485808D01*
X41496Y487226D01*
X41795Y488732D01*
Y490268D01*
X41496Y491774D01*
X40908Y493192D01*
X40055Y494469D01*
X38969Y495555D01*
X37692Y496408D01*
X36274Y496996D01*
X34768Y497295D01*
X33232D01*
X31726Y496996D01*
X30308Y496408D01*
X29031Y495555D01*
X27945Y494469D01*
X27092Y493192D01*
X26504Y491774D01*
X26205Y490268D01*
Y488732D01*
X26504Y487226D01*
X27092Y485808D01*
X27945Y484531D01*
X29031Y483445D01*
X30308Y482592D01*
X31726Y482004D01*
X32445Y481861D01*
Y474612D01*
X31846D01*
Y469994D01*
X31846Y469691D01*
X31846Y469191D01*
Y464572D01*
X36983D01*
X38788Y462768D01*
X39374Y462376D01*
X40065Y462239D01*
X45238D01*
X45469Y462008D01*
Y461289D01*
X45504Y461115D01*
Y459124D01*
X47760D01*
X51069Y455815D01*
X51069Y455815D01*
X51590Y455467D01*
X52204Y455345D01*
X52204Y455345D01*
X53673D01*
Y454195D01*
X56429D01*
Y458722D01*
X53673D01*
Y458556D01*
X52869D01*
X50031Y461394D01*
Y463061D01*
X49021D01*
X48944Y463447D01*
X48552Y464033D01*
X47264Y465322D01*
X46677Y465714D01*
X45986Y465851D01*
X40813D01*
X38958Y467706D01*
X38372Y468098D01*
X37681Y468235D01*
X37514D01*
X37161Y468589D01*
X37161Y469494D01*
X37161Y469994D01*
Y474612D01*
X36058D01*
Y481319D01*
X36558Y481526D01*
X46367Y471717D01*
Y468085D01*
X49021D01*
X51248Y465859D01*
X51833Y465468D01*
X52525Y465330D01*
X52584D01*
Y465168D01*
X56284D01*
Y465200D01*
X57535D01*
Y463592D01*
Y459191D01*
X57535Y459065D01*
X57535Y459065D01*
X57610Y458722D01*
X57610Y458722D01*
Y454195D01*
X62334D01*
Y457253D01*
X62361Y457279D01*
X62499Y457307D01*
X63020Y457655D01*
X64359Y458994D01*
X64948D01*
X64948Y458994D01*
X65103Y459025D01*
X67310D01*
Y464821D01*
X68653D01*
Y464758D01*
X72354D01*
Y468498D01*
X72306D01*
Y470033D01*
X73405D01*
Y475151D01*
X72849D01*
Y475795D01*
X79911Y482857D01*
X80308Y482592D01*
X81726Y482004D01*
X82617Y481827D01*
Y476348D01*
X82287D01*
Y473391D01*
X81265Y472369D01*
X80874Y471783D01*
X80737Y471092D01*
Y468651D01*
X80181D01*
Y467806D01*
X80000D01*
X79309Y467669D01*
X78723Y467277D01*
X75191Y463745D01*
X74799Y463159D01*
X74662Y462468D01*
Y460943D01*
X74598D01*
Y460899D01*
X72592D01*
X71901Y460761D01*
X71315Y460369D01*
X68805Y457859D01*
X68413Y457273D01*
X68276Y456582D01*
Y456393D01*
X68259D01*
Y453456D01*
X64172D01*
X64172Y453456D01*
X63474Y453364D01*
X62824Y453095D01*
X62589Y452915D01*
X61645D01*
Y451883D01*
X61400Y451290D01*
X61308Y450592D01*
X61400Y449895D01*
X61645Y449301D01*
Y448191D01*
X62817D01*
X63306Y447988D01*
X64003Y447896D01*
X64701Y447988D01*
X64885Y448065D01*
X75240D01*
X75937Y448156D01*
X76588Y448426D01*
X76759Y448558D01*
X77066Y448322D01*
X77717Y448053D01*
X78414Y447961D01*
X115771D01*
X115772Y442774D01*
X117339Y442774D01*
Y391495D01*
X116839Y391000D01*
X2007D01*
Y443337D01*
X2361Y443690D01*
X3771Y443690D01*
Y448897D01*
X35968D01*
X36666Y448988D01*
X37316Y449258D01*
X37494Y449394D01*
X37756Y449192D01*
X38407Y448923D01*
X39104Y448831D01*
X49834D01*
Y446753D01*
X49834Y446753D01*
Y446674D01*
X49809Y446669D01*
X49223Y446277D01*
X48920Y445824D01*
X48920Y445824D01*
X48920Y445824D01*
X48831Y445691D01*
X48800Y445535D01*
X48800Y445535D01*
X48733Y445196D01*
Y445196D01*
X48694Y445000D01*
X48697Y444983D01*
Y443557D01*
X48653D01*
Y440166D01*
X45826D01*
X45135Y440029D01*
X45006Y439943D01*
X43669D01*
Y436242D01*
X43695D01*
Y434651D01*
X43102D01*
Y429533D01*
X43506D01*
Y426848D01*
X42602D01*
Y421336D01*
X43194D01*
Y417248D01*
X39252Y413306D01*
X32589D01*
X32496Y413774D01*
X31908Y415193D01*
X31055Y416469D01*
X29969Y417555D01*
X28692Y418408D01*
X27274Y418996D01*
X25768Y419295D01*
X24232D01*
X22726Y418996D01*
X21308Y418408D01*
X20031Y417555D01*
X18945Y416469D01*
X18092Y415193D01*
X17504Y413774D01*
X17205Y412268D01*
Y410732D01*
X17504Y409226D01*
X18092Y407807D01*
X18945Y406531D01*
X20031Y405445D01*
X21308Y404592D01*
X22726Y404004D01*
X24232Y403705D01*
X25768D01*
X27274Y404004D01*
X28692Y404592D01*
X29969Y405445D01*
X31055Y406531D01*
X31908Y407807D01*
X32496Y409226D01*
X32589Y409694D01*
X40000D01*
X40691Y409831D01*
X41277Y410223D01*
X46277Y415223D01*
X46669Y415809D01*
X46806Y416500D01*
Y421336D01*
X47720D01*
Y426848D01*
X47119D01*
Y429533D01*
X47826D01*
Y434651D01*
X47308D01*
Y436242D01*
X47409D01*
Y436554D01*
X50503D01*
X50876Y436628D01*
X52354D01*
Y439592D01*
X52354Y440092D01*
X52354D01*
Y440092D01*
X52354D01*
Y443557D01*
X52310D01*
Y444997D01*
X52172Y445688D01*
X52150Y445721D01*
X52148Y445729D01*
X52139Y445751D01*
X52119Y445782D01*
X52136Y445814D01*
X52147Y445851D01*
X52308Y446152D01*
X52333Y446182D01*
X52350Y446214D01*
X52387D01*
X52425Y446222D01*
X53557D01*
X53557Y446222D01*
X53557Y446222D01*
X54362D01*
Y448191D01*
Y452915D01*
X52803D01*
X52406Y453433D01*
X51848Y453861D01*
X51198Y454131D01*
X50500Y454222D01*
X39104D01*
X38407Y454131D01*
X37756Y453861D01*
X37579Y453725D01*
X37316Y453927D01*
X36666Y454196D01*
X35968Y454288D01*
X3771D01*
Y459455D01*
X2007D01*
Y556276D01*
X2083Y556745D01*
X2529Y556745D01*
X3524D01*
Y562039D01*
X51693D01*
X51766Y562049D01*
X53321D01*
Y562616D01*
X53599Y562829D01*
X54027Y563387D01*
X54296Y564037D01*
X54388Y564735D01*
X54296Y565433D01*
X54027Y566083D01*
X53599Y566641D01*
X53321Y566854D01*
Y567403D01*
X51901D01*
X51693Y567431D01*
X3524D01*
Y572597D01*
X2085D01*
X2007Y573065D01*
Y614993D01*
X117339D01*
Y573069D01*
D02*
G37*
G36*
X53552Y447029D02*
X53557Y447025D01*
X52346D01*
X52230Y447002D01*
X52113Y446990D01*
X52078Y446972D01*
X52039Y446964D01*
X51940Y446898D01*
X51836Y446843D01*
X51811Y446812D01*
X51778Y446790D01*
X51713Y446692D01*
X51638Y446601D01*
X51402Y446160D01*
X51368Y446047D01*
X51323Y445938D01*
Y445898D01*
X51311Y445860D01*
X51323Y445743D01*
X51323Y445624D01*
X51338Y445588D01*
X51342Y445548D01*
X51397Y445444D01*
X51407Y445421D01*
X51499Y444957D01*
X51494Y444952D01*
Y444688D01*
X49530D01*
X49520Y444697D01*
Y445028D01*
Y445040D01*
X49588Y445378D01*
X49802Y445698D01*
X50233Y445987D01*
X50280Y446006D01*
X50336Y446062D01*
X50402Y446106D01*
X50446Y446172D01*
X50502Y446228D01*
X50532Y446301D01*
X50576Y446367D01*
X50591Y446444D01*
X50622Y446517D01*
X50622Y446596D01*
X50637Y446674D01*
Y448165D01*
X50653Y448182D01*
X53552D01*
Y447029D01*
D02*
G37*
G36*
X117326Y384000D02*
X117339Y383505D01*
Y373500D01*
X117492Y372732D01*
X117927Y372081D01*
X118578Y371646D01*
X119311Y371500D01*
X147059D01*
X147059Y301325D01*
X146706Y300972D01*
X145540D01*
X145541Y296103D01*
X145187Y295750D01*
X130998D01*
Y296694D01*
X118164D01*
Y295750D01*
X76682D01*
X76282Y295991D01*
X76025Y296163D01*
X75560Y296255D01*
X74005D01*
X73540Y296163D01*
X73146Y295900D01*
X72883Y295506D01*
X72821Y295194D01*
X72816Y295166D01*
Y295166D01*
X72791Y295041D01*
X72883Y294576D01*
X73012Y294383D01*
X73012Y294383D01*
X72710Y293931D01*
X72539Y293073D01*
X72710Y292214D01*
X72885Y291951D01*
Y291951D01*
X73012Y291762D01*
X72883Y291569D01*
X72791Y291104D01*
X72883Y290639D01*
X73146Y290245D01*
X73540Y289982D01*
X74005Y289890D01*
X75560D01*
X76025Y289982D01*
X76311Y290174D01*
X76720Y290395D01*
X118164D01*
Y289438D01*
X130998Y289438D01*
X130998Y290395D01*
X145541D01*
X145541Y290395D01*
X145542Y285207D01*
X147060Y285207D01*
X147060Y231354D01*
X146706Y231000D01*
X2007D01*
Y284828D01*
X2361Y285182D01*
X3541Y285182D01*
Y289895D01*
X3541Y290395D01*
X58082D01*
X58490Y290174D01*
X58776Y289982D01*
X59241Y289890D01*
X60796D01*
X61261Y289982D01*
X61655Y290245D01*
X61918Y290639D01*
X62011Y291104D01*
X61918Y291569D01*
X61789Y291762D01*
X61789Y291762D01*
X62091Y292214D01*
X62262Y293073D01*
X62091Y293931D01*
X61932Y294169D01*
Y294169D01*
X61789Y294383D01*
X61918Y294576D01*
X62011Y295041D01*
X61918Y295506D01*
X61655Y295900D01*
X61261Y296163D01*
X60796Y296255D01*
X59241D01*
X58776Y296163D01*
X58490Y295971D01*
X58082Y295750D01*
X3541D01*
Y300947D01*
X2007D01*
Y370500D01*
Y384000D01*
X117326D01*
D02*
G37*
G36*
X76081Y293783D02*
Y292373D01*
X74827Y291120D01*
X73446D01*
X73485Y291319D01*
X73544Y291407D01*
X73568Y291531D01*
X73639Y291637D01*
X73614Y291762D01*
X73639Y291886D01*
X73568Y291992D01*
X73544Y292117D01*
X73417Y292306D01*
Y293839D01*
X73544Y294028D01*
X73568Y294153D01*
X73639Y294258D01*
X73614Y294383D01*
X73639Y294508D01*
X73568Y294614D01*
X73544Y294738D01*
X73485Y294826D01*
X73443Y295041D01*
X73448Y295069D01*
X74827D01*
X76081Y293783D01*
D02*
G37*
G36*
X61316Y294826D02*
X61258Y294738D01*
X61233Y294614D01*
X61162Y294508D01*
X61187Y294383D01*
X61162Y294258D01*
X61233Y294153D01*
X61258Y294028D01*
X61401Y293814D01*
Y292331D01*
X61258Y292117D01*
X61233Y291992D01*
X61162Y291886D01*
X61187Y291762D01*
X61162Y291637D01*
X61233Y291531D01*
X61258Y291407D01*
X61316Y291319D01*
X61359Y291104D01*
X61355Y291084D01*
X59991D01*
X58737Y292371D01*
Y293780D01*
X59991Y295034D01*
X61357D01*
X61316Y294826D01*
D02*
G37*
G36*
X175085Y222499D02*
X205916Y222495D01*
Y145867D01*
X205884Y145381D01*
X204383D01*
Y140147D01*
X188872D01*
Y141070D01*
X176037D01*
Y140147D01*
X109071D01*
Y140147D01*
X108571Y140144D01*
X108469Y140297D01*
X108075Y140560D01*
X107610Y140652D01*
X106055D01*
X105591Y140560D01*
X105197Y140297D01*
X104934Y139903D01*
X104866Y139563D01*
Y139563D01*
X104841Y139438D01*
X104934Y138973D01*
X105062Y138780D01*
Y138780D01*
X104760Y138328D01*
X104589Y137469D01*
X104760Y136611D01*
X104936Y136348D01*
Y136348D01*
X105062Y136159D01*
Y136159D01*
X104934Y135966D01*
X104841Y135501D01*
X104934Y135036D01*
X105197Y134642D01*
X105591Y134379D01*
X106055Y134287D01*
X107610D01*
X108075Y134379D01*
X108469Y134642D01*
X108539Y134748D01*
X109021Y134792D01*
X109021Y134792D01*
X176037D01*
Y133840D01*
X188872D01*
Y134792D01*
X204383D01*
Y129142D01*
X205884D01*
X205916Y128656D01*
Y67007D01*
X2007D01*
Y129501D01*
X3500D01*
Y134693D01*
X90280D01*
X90688Y134472D01*
X90827Y134379D01*
X91291Y134287D01*
X92847D01*
X93311Y134379D01*
X93705Y134642D01*
X93968Y135036D01*
X94061Y135501D01*
X93968Y135966D01*
X93836Y136164D01*
X94121Y136591D01*
X94292Y137449D01*
X94121Y138307D01*
X93822Y138755D01*
X93968Y138973D01*
X94061Y139438D01*
X93968Y139903D01*
X93705Y140297D01*
X93311Y140560D01*
X92847Y140652D01*
X91291D01*
X90827Y140560D01*
X90433Y140297D01*
X90423Y140281D01*
X90181Y140106D01*
X3500D01*
Y145244D01*
X2007D01*
Y220500D01*
Y222500D01*
X154000D01*
Y222500D01*
X154001Y222501D01*
X175085Y222499D01*
D02*
G37*
G36*
X108132Y138171D02*
Y136761D01*
X106877Y135507D01*
X105494D01*
X105536Y135716D01*
X105594Y135804D01*
X105619Y135928D01*
X105689Y136034D01*
X105665Y136159D01*
X105689Y136284D01*
X105619Y136389D01*
X105594Y136514D01*
X105468Y136703D01*
Y138236D01*
X105594Y138425D01*
X105619Y138550D01*
X105689Y138656D01*
X105665Y138780D01*
X105689Y138905D01*
X105619Y139011D01*
X105594Y139135D01*
X105536Y139223D01*
X105493Y139438D01*
X105497Y139457D01*
X106877D01*
X108132Y138171D01*
D02*
G37*
G36*
X93366Y139223D02*
X93291Y139110D01*
X93266Y138985D01*
X93195Y138879D01*
X93220Y138755D01*
X93195Y138630D01*
X93266Y138524D01*
X93291Y138400D01*
X93430Y138192D01*
Y136706D01*
X93305Y136519D01*
X93280Y136394D01*
X93209Y136289D01*
X93234Y136164D01*
X93209Y136039D01*
X93280Y135933D01*
X93305Y135809D01*
X93366Y135716D01*
X93409Y135501D01*
X93404Y135476D01*
X92020D01*
X90766Y136762D01*
Y138172D01*
X92020Y139426D01*
X93407D01*
X93366Y139223D01*
D02*
G37*
%LPC*%
G36*
X34268Y609795D02*
X32732D01*
X31226Y609496D01*
X29808Y608908D01*
X28531Y608055D01*
X27445Y606969D01*
X26592Y605692D01*
X26004Y604274D01*
X25705Y602768D01*
Y601232D01*
X26004Y599726D01*
X26592Y598308D01*
X27445Y597031D01*
X28531Y595945D01*
X29808Y595092D01*
X31226Y594504D01*
X32732Y594205D01*
X34268D01*
X35599Y594470D01*
X47702Y582367D01*
X48278Y581925D01*
X48948Y581647D01*
X49668Y581553D01*
X50059D01*
Y580986D01*
X53960D01*
X54192Y580940D01*
X56483D01*
X56669Y580698D01*
X56619Y580480D01*
X56425Y580198D01*
X50059D01*
Y575270D01*
X50052Y575236D01*
Y573105D01*
X50052Y573105D01*
X50113Y572798D01*
X50287Y572537D01*
X50287Y572537D01*
X54148Y568676D01*
Y568230D01*
X59503D01*
Y571569D01*
X62467Y574533D01*
X62905D01*
Y575240D01*
X62921Y575320D01*
X62921Y575321D01*
Y576406D01*
X62905Y576485D01*
Y576860D01*
X62951Y577092D01*
Y580457D01*
X62768Y581379D01*
X62246Y582160D01*
X59355Y585051D01*
X58574Y585573D01*
X57652Y585757D01*
X56948D01*
Y587088D01*
X53389D01*
X53208Y587112D01*
X50819D01*
X40094Y597837D01*
X40408Y598308D01*
X40996Y599726D01*
X41295Y601232D01*
Y602768D01*
X40996Y604274D01*
X40408Y605692D01*
X39555Y606969D01*
X38469Y608055D01*
X37192Y608908D01*
X35774Y609496D01*
X34268Y609795D01*
D02*
G37*
%LPD*%
G36*
X62118Y575320D02*
X62118Y575320D01*
X58714Y571915D01*
Y571910D01*
X58034D01*
X57535Y572127D01*
X57535Y572410D01*
Y573889D01*
X60052Y576406D01*
X62118D01*
Y575320D01*
D02*
G37*
G36*
X56115Y575192D02*
Y569072D01*
X54887D01*
X50855Y573105D01*
Y575236D01*
X56097D01*
X56115Y575192D01*
D02*
G37*
%LPC*%
G36*
X91768Y362795D02*
X90232D01*
X88726Y362496D01*
X87308Y361908D01*
X86031Y361055D01*
X84945Y359969D01*
X84092Y358693D01*
X83504Y357274D01*
X83205Y355768D01*
Y354232D01*
X83504Y352726D01*
X84092Y351308D01*
X84945Y350031D01*
X86031Y348945D01*
X87308Y348092D01*
X88269Y347694D01*
Y342136D01*
X87007D01*
Y341422D01*
X80503D01*
X79779Y341278D01*
X79562Y341423D01*
X78641Y341606D01*
X68259D01*
Y341994D01*
X62748D01*
Y341702D01*
X40645D01*
X40195Y341612D01*
X37846D01*
Y336994D01*
X37846Y336691D01*
X37846Y336191D01*
Y331573D01*
X38526D01*
Y327848D01*
X37602D01*
Y322336D01*
X39142D01*
Y322052D01*
X39279Y321360D01*
X39671Y320774D01*
X40194Y320252D01*
Y319151D01*
X39602D01*
Y314033D01*
X40748D01*
Y312445D01*
X40886Y311754D01*
X41277Y311168D01*
X44984Y307462D01*
X45570Y307070D01*
X46261Y306932D01*
X51947D01*
Y306869D01*
X51978D01*
Y304159D01*
X51965Y304092D01*
X52039Y303720D01*
Y302242D01*
X55003D01*
X55503Y302242D01*
Y302242D01*
X55503D01*
X55503Y302242D01*
X58968D01*
Y302286D01*
X59660D01*
X60223Y301723D01*
X60809Y301331D01*
X60920Y301309D01*
X61558Y300671D01*
Y299965D01*
X61681Y299350D01*
X62029Y298829D01*
X62550Y298481D01*
X62842Y298423D01*
X62922Y298370D01*
X63464Y298262D01*
X64005Y298370D01*
X64464Y298676D01*
X64771Y299135D01*
X64879Y299677D01*
Y301232D01*
X64771Y301774D01*
X64464Y302233D01*
X64455Y302239D01*
X64299Y302471D01*
X64299Y302471D01*
X63191Y303580D01*
X63169Y303691D01*
X62777Y304277D01*
X61685Y305369D01*
X61099Y305761D01*
X60408Y305899D01*
X58968D01*
Y305943D01*
X55591D01*
Y306869D01*
X55648D01*
Y310609D01*
X51947D01*
Y310545D01*
X47010D01*
X44361Y313194D01*
Y316002D01*
X44326Y316176D01*
Y319151D01*
X43806D01*
Y321000D01*
X43669Y321691D01*
X43277Y322277D01*
X42755Y322800D01*
Y324305D01*
X42720Y324479D01*
Y327848D01*
X42139D01*
Y331573D01*
X43161D01*
Y336191D01*
X43161Y336494D01*
X43425Y336884D01*
X47582D01*
X47846Y336494D01*
X47846Y336191D01*
Y331573D01*
X48618D01*
Y329848D01*
X47787D01*
Y324336D01*
X48888D01*
Y322151D01*
X48681D01*
Y317033D01*
X49827D01*
Y316867D01*
X49964Y316175D01*
X50356Y315589D01*
X51723Y314223D01*
X52309Y313831D01*
X53000Y313694D01*
X58383D01*
X59653Y312423D01*
Y311258D01*
X61447D01*
X61582Y311231D01*
X64492D01*
Y310754D01*
X70515D01*
Y315320D01*
X64492D01*
Y314843D01*
X63354D01*
Y314998D01*
X62188D01*
X60408Y316777D01*
X59822Y317169D01*
X59131Y317306D01*
X53748D01*
X53440Y317615D01*
Y319002D01*
X53405Y319176D01*
Y322151D01*
X52501D01*
Y324336D01*
X52905D01*
Y329848D01*
X52231D01*
Y331573D01*
X53161D01*
Y336191D01*
X53161Y336494D01*
X53425Y336884D01*
X62748D01*
Y336876D01*
X65468D01*
X65700Y336829D01*
X67052D01*
X67254Y336789D01*
X77367D01*
X77846Y336320D01*
X77846Y335691D01*
Y331072D01*
X78697D01*
Y321553D01*
X77846D01*
Y316935D01*
X77846Y316632D01*
X77846Y316132D01*
Y311513D01*
X78727D01*
Y309603D01*
X78373Y309250D01*
X78102D01*
X77602Y309250D01*
X72984D01*
Y306078D01*
X72949Y305903D01*
Y304004D01*
X71690Y302745D01*
X71309Y302669D01*
X71250Y302629D01*
X70796Y302539D01*
X70337Y302233D01*
X70030Y301774D01*
X69923Y301232D01*
Y299677D01*
X70030Y299135D01*
X70337Y298676D01*
X70796Y298370D01*
X71338Y298262D01*
X71879Y298370D01*
X72338Y298676D01*
X72645Y299135D01*
X72663Y299226D01*
X73191Y299331D01*
X73777Y299723D01*
X76033Y301978D01*
X76424Y302564D01*
X76562Y303255D01*
Y303581D01*
X76915Y303935D01*
X77905Y303935D01*
X78405Y303935D01*
X83023D01*
Y309250D01*
X82339D01*
Y311513D01*
X83161D01*
Y316132D01*
X83161Y316435D01*
X83161Y316935D01*
Y321553D01*
X82310D01*
Y331072D01*
X83161D01*
Y335691D01*
X83161Y335994D01*
Y336251D01*
X83514Y336605D01*
X87007D01*
Y335049D01*
X93700D01*
Y342136D01*
X93085D01*
Y347467D01*
X93274Y347504D01*
X94692Y348092D01*
X95969Y348945D01*
X97055Y350031D01*
X97908Y351308D01*
X98496Y352726D01*
X98795Y354232D01*
Y355768D01*
X98496Y357274D01*
X97908Y358693D01*
X97055Y359969D01*
X95969Y361055D01*
X94692Y361908D01*
X93274Y362496D01*
X91768Y362795D01*
D02*
G37*
G36*
X70515Y308431D02*
X64492D01*
Y303864D01*
X65624D01*
Y303070D01*
X65761Y302379D01*
X66016Y301998D01*
Y301383D01*
X65986Y301232D01*
Y299677D01*
X66093Y299135D01*
X66400Y298676D01*
X66859Y298370D01*
X67401Y298262D01*
X67942Y298370D01*
X68401Y298676D01*
X68708Y299135D01*
X68816Y299677D01*
Y301232D01*
X68786Y301383D01*
Y301910D01*
X69099Y302379D01*
X69236Y303070D01*
Y303864D01*
X70515D01*
Y308431D01*
D02*
G37*
G36*
X67401Y287883D02*
X66859Y287775D01*
X66400Y287469D01*
X66093Y287010D01*
X65986Y286468D01*
Y284913D01*
X66026Y284712D01*
Y283590D01*
X66131Y283060D01*
X66431Y282610D01*
X67982Y281060D01*
X68017Y280886D01*
X68365Y280365D01*
X68395Y280334D01*
X68418Y280222D01*
X68809Y279636D01*
X69395Y279245D01*
X70086Y279107D01*
X72796D01*
X77846Y274057D01*
Y271994D01*
X77846Y271691D01*
X77846Y271191D01*
Y266572D01*
X78868D01*
Y264848D01*
X78287D01*
Y259336D01*
X79118D01*
Y257612D01*
X78346D01*
Y252994D01*
X78346Y252691D01*
X77963Y252409D01*
X62964D01*
X57515Y257858D01*
X57515Y259373D01*
X57515Y259874D01*
Y264492D01*
X56642D01*
Y266191D01*
X57472D01*
Y270809D01*
X57472Y271112D01*
X57472Y271612D01*
Y273676D01*
X62519Y278723D01*
X62911Y279309D01*
X62930Y279408D01*
X64606Y281084D01*
X64954Y281605D01*
X65077Y282219D01*
X64954Y282834D01*
X64876Y282951D01*
Y283524D01*
X64858Y283612D01*
Y284811D01*
X64879Y284913D01*
Y286468D01*
X64771Y287010D01*
X64464Y287469D01*
X64005Y287775D01*
X63464Y287883D01*
X62922Y287775D01*
X62463Y287469D01*
X62156Y287010D01*
X62049Y286468D01*
Y284913D01*
X62089Y284712D01*
Y283638D01*
X62066Y283524D01*
Y283085D01*
X60675Y281694D01*
X60551Y281669D01*
X59965Y281277D01*
X54917Y276230D01*
X52157D01*
Y271612D01*
X52157Y271309D01*
X52157Y270809D01*
Y266191D01*
X53029D01*
Y264492D01*
X52200D01*
Y259874D01*
X52200Y259570D01*
X52200Y259070D01*
Y254452D01*
X54108D01*
X60264Y248297D01*
X61045Y247775D01*
X61967Y247591D01*
X78346D01*
Y247572D01*
X83661D01*
Y247625D01*
X105471D01*
X106392Y247808D01*
X107174Y248330D01*
X110042Y251198D01*
X110811Y250684D01*
X112230Y250097D01*
X113736Y249797D01*
X115271D01*
X116777Y250097D01*
X118196Y250684D01*
X119473Y251537D01*
X120558Y252623D01*
X121412Y253900D01*
X121999Y255318D01*
X122299Y256824D01*
Y258360D01*
X121999Y259866D01*
X121412Y261285D01*
X120558Y262561D01*
X119473Y263647D01*
X118196Y264500D01*
X116777Y265088D01*
X115271Y265388D01*
X113736D01*
X112230Y265088D01*
X110811Y264500D01*
X109534Y263647D01*
X108449Y262561D01*
X107595Y261285D01*
X107008Y259866D01*
X106708Y258360D01*
Y256824D01*
X107008Y255318D01*
X107108Y255077D01*
X104473Y252442D01*
X84058D01*
X83661Y252691D01*
X83661Y252994D01*
Y257612D01*
X82731D01*
Y259336D01*
X83405D01*
Y264848D01*
X82481D01*
Y266572D01*
X83161D01*
Y271191D01*
X83161Y271494D01*
X83161Y271994D01*
Y276612D01*
X80401D01*
X74822Y282191D01*
X74235Y282583D01*
X73544Y282720D01*
X70509D01*
X70114Y282983D01*
X69941Y283018D01*
X68795Y284163D01*
Y284811D01*
X68816Y284913D01*
Y286468D01*
X68708Y287010D01*
X68401Y287469D01*
X67942Y287775D01*
X67401Y287883D01*
D02*
G37*
G36*
X123539Y206868D02*
X122003D01*
X120497Y206568D01*
X119079Y205981D01*
X117802Y205128D01*
X116716Y204042D01*
X115863Y202765D01*
X115276Y201346D01*
X114976Y199840D01*
Y198305D01*
X115276Y196799D01*
X115863Y195380D01*
X116716Y194103D01*
X117802Y193017D01*
X119079Y192164D01*
X120497Y191577D01*
X120544Y191568D01*
Y186532D01*
X119058D01*
Y185819D01*
X100310D01*
Y186391D01*
X94798D01*
Y185957D01*
X85211D01*
Y186009D01*
X79896D01*
Y185957D01*
X75211D01*
Y186009D01*
X69896D01*
Y181391D01*
X69896Y181088D01*
X69896Y180588D01*
Y175970D01*
X70777D01*
Y172245D01*
X69652D01*
Y166733D01*
X71166D01*
Y165073D01*
X71166Y165073D01*
X71288Y164458D01*
X71621Y163959D01*
Y161777D01*
X71621Y161777D01*
X71652Y161621D01*
Y158430D01*
X72409D01*
Y155829D01*
X72409Y155829D01*
X72531Y155215D01*
X72879Y154694D01*
X75573Y152000D01*
X75573Y152000D01*
X76093Y151652D01*
X76708Y151530D01*
X83998D01*
Y151266D01*
X84229D01*
Y150340D01*
X84089D01*
Y146639D01*
X87054D01*
X87554Y146639D01*
X88054Y146639D01*
X91018D01*
Y146639D01*
X91494Y146579D01*
X93914Y144159D01*
X94011Y143670D01*
X94312Y143221D01*
X94498Y143097D01*
X94513Y143073D01*
X94972Y142767D01*
X95514Y142659D01*
X96056Y142767D01*
X96514Y143073D01*
X96821Y143532D01*
X96929Y144074D01*
Y145629D01*
X96821Y146170D01*
X96514Y146630D01*
X96056Y146936D01*
X95584Y147030D01*
X92990Y149625D01*
X92469Y149973D01*
X91855Y150095D01*
X91854Y150095D01*
X91018D01*
Y150340D01*
X88054D01*
X87554Y150340D01*
X87440Y150793D01*
Y151266D01*
X87698D01*
Y155006D01*
X83998D01*
Y154742D01*
X77373D01*
X75620Y156494D01*
Y158430D01*
X76377D01*
Y163548D01*
X74833D01*
Y164617D01*
X74710Y165231D01*
X74377Y165730D01*
Y166733D01*
X74770D01*
Y172245D01*
X73988D01*
Y175970D01*
X75211D01*
Y180588D01*
X75211Y180891D01*
X75608Y181140D01*
X79499D01*
X79896Y180891D01*
X79896Y180588D01*
Y175970D01*
X80869D01*
Y174245D01*
X79837D01*
Y168733D01*
X81139D01*
Y166548D01*
X80731D01*
Y161430D01*
X82282D01*
X82397Y160849D01*
X82745Y160328D01*
X84136Y158937D01*
X84657Y158589D01*
X85271Y158467D01*
X85271Y158467D01*
X90341D01*
X91703Y157104D01*
Y155655D01*
X95404D01*
Y155673D01*
X96542D01*
Y155151D01*
X102566D01*
Y159718D01*
X96542D01*
Y159286D01*
X95404D01*
Y159395D01*
X93954D01*
X92141Y161208D01*
X91620Y161556D01*
X91006Y161678D01*
X91006Y161678D01*
X85936D01*
X85486Y162128D01*
Y163202D01*
X85486Y163202D01*
X85455Y163357D01*
Y166548D01*
X84350D01*
Y168733D01*
X84955D01*
Y174245D01*
X84081D01*
Y175970D01*
X85211D01*
Y180588D01*
X85211Y180891D01*
X85608Y181140D01*
X97074D01*
X97178Y181161D01*
X97975Y181002D01*
X109543D01*
X109896Y180648D01*
X109896Y180088D01*
Y175470D01*
X110747D01*
Y165950D01*
X109896D01*
Y161332D01*
X109896Y161029D01*
X109896Y160529D01*
Y155911D01*
X110777D01*
Y154000D01*
X110423Y153647D01*
X110152D01*
X109652Y153647D01*
X105034D01*
Y150475D01*
X104999Y150300D01*
Y149017D01*
X103413Y147431D01*
X103119Y146990D01*
X102847Y146936D01*
X102387Y146630D01*
X102081Y146170D01*
X101973Y145629D01*
Y144074D01*
X102081Y143532D01*
X102387Y143073D01*
X102847Y142767D01*
X103388Y142659D01*
X103929Y142767D01*
X104388Y143073D01*
X104695Y143532D01*
X104803Y144074D01*
Y144280D01*
X104915Y144392D01*
X105381Y144485D01*
X105967Y144876D01*
X108083Y146992D01*
X108475Y147578D01*
X108612Y148269D01*
X108675Y148332D01*
X109955Y148332D01*
X110455Y148332D01*
X115074D01*
Y153647D01*
X114390D01*
Y155911D01*
X115211D01*
Y160529D01*
X115211Y160832D01*
X115211Y161332D01*
Y165950D01*
X114360D01*
Y175470D01*
X115211D01*
Y180088D01*
X115211Y180391D01*
Y180648D01*
X115565Y181002D01*
X119058D01*
Y179446D01*
X125751D01*
Y186532D01*
X125361D01*
Y191708D01*
X126464Y192164D01*
X127740Y193017D01*
X128826Y194103D01*
X129679Y195380D01*
X130267Y196799D01*
X130567Y198305D01*
Y199840D01*
X130267Y201346D01*
X129679Y202765D01*
X128826Y204042D01*
X127740Y205128D01*
X126464Y205981D01*
X125045Y206568D01*
X123539Y206868D01*
D02*
G37*
G36*
X102566Y152828D02*
X96542D01*
Y148261D01*
X97835D01*
Y146903D01*
X97958Y146288D01*
X98056Y146141D01*
Y145731D01*
X98036Y145629D01*
Y144074D01*
X98144Y143532D01*
X98450Y143073D01*
X98909Y142767D01*
X99451Y142659D01*
X99993Y142767D01*
X100452Y143073D01*
X100758Y143532D01*
X100866Y144074D01*
Y145629D01*
X100826Y145830D01*
Y146141D01*
X100925Y146288D01*
X101047Y146903D01*
Y148261D01*
X102566D01*
Y152828D01*
D02*
G37*
G36*
X99451Y132280D02*
X98909Y132173D01*
X98450Y131866D01*
X98144Y131407D01*
X98036Y130865D01*
Y129310D01*
X98066Y129159D01*
Y126522D01*
X98172Y125992D01*
X98472Y125543D01*
X99742Y124273D01*
X99799Y124187D01*
X100255Y123883D01*
X100792Y123776D01*
X102927D01*
X103058Y123688D01*
X103672Y123566D01*
X104785D01*
X109896Y118454D01*
Y116391D01*
X109896Y116088D01*
X109896Y115588D01*
Y110969D01*
X110919D01*
Y109245D01*
X110337D01*
Y103733D01*
X111169D01*
Y102009D01*
X110396D01*
Y97391D01*
X110396Y97088D01*
X110005Y96826D01*
X90924D01*
X89401Y98349D01*
X89520Y98849D01*
X89565D01*
Y103467D01*
X89565Y103770D01*
X89565Y104271D01*
Y108889D01*
X88692D01*
Y110588D01*
X89522D01*
Y115206D01*
X89522Y115509D01*
X89522Y116009D01*
Y119269D01*
X95548Y125295D01*
X95940Y125881D01*
X96040Y126383D01*
X96482Y126825D01*
X96782Y127274D01*
X96887Y127804D01*
Y129102D01*
X96929Y129310D01*
Y130865D01*
X96821Y131407D01*
X96514Y131866D01*
X96056Y132173D01*
X95514Y132280D01*
X94972Y132173D01*
X94513Y131866D01*
X94207Y131407D01*
X94099Y130865D01*
Y129310D01*
X94118Y129216D01*
Y128378D01*
X94081Y128341D01*
X93580Y128241D01*
X92994Y127850D01*
X85771Y120627D01*
X84207D01*
Y116009D01*
X84207Y115706D01*
X84207Y115206D01*
Y110588D01*
X85080D01*
Y108889D01*
X84250D01*
Y104271D01*
X84250Y103967D01*
X84250Y103467D01*
Y98849D01*
X84499D01*
Y97436D01*
X84682Y96515D01*
X85204Y95733D01*
X88223Y92715D01*
X89004Y92193D01*
X89926Y92009D01*
X110396D01*
Y91970D01*
X115711D01*
Y92022D01*
X142129D01*
X143051Y92205D01*
X143832Y92727D01*
X146713Y95609D01*
X147997Y95077D01*
X149503Y94777D01*
X151039D01*
X152545Y95077D01*
X153964Y95664D01*
X155240Y96517D01*
X156326Y97603D01*
X157179Y98880D01*
X157767Y100299D01*
X158066Y101805D01*
Y103340D01*
X157767Y104846D01*
X157179Y106265D01*
X156326Y107542D01*
X155240Y108627D01*
X153964Y109481D01*
X152545Y110068D01*
X151039Y110368D01*
X149503D01*
X147997Y110068D01*
X146579Y109481D01*
X145302Y108627D01*
X144216Y107542D01*
X143363Y106265D01*
X142775Y104846D01*
X142476Y103340D01*
Y101805D01*
X142775Y100299D01*
X143307Y99015D01*
X141131Y96839D01*
X116108D01*
X115711Y97088D01*
X115711Y97391D01*
Y102009D01*
X114781D01*
Y103733D01*
X115455D01*
Y109245D01*
X114531D01*
Y110969D01*
X115211D01*
Y115588D01*
X115211Y115891D01*
X115211Y116391D01*
Y121009D01*
X112451D01*
X107011Y126449D01*
X106425Y126841D01*
X105733Y126978D01*
X105042Y126841D01*
X104948Y126777D01*
X103672D01*
X103058Y126655D01*
X102954Y126586D01*
X101346D01*
X100836Y127096D01*
Y129159D01*
X100866Y129310D01*
Y130865D01*
X100758Y131407D01*
X100452Y131866D01*
X99993Y132173D01*
X99451Y132280D01*
D02*
G37*
%LPD*%
D15*
X1773Y137370D02*
D03*
X206196Y137500D02*
D03*
X147295Y293073D02*
D03*
X1771D02*
D03*
Y451592D02*
D03*
X117574Y450553D02*
D03*
Y564726D02*
D03*
X1771D02*
D03*
D16*
X9843Y148000D02*
D03*
Y126740D02*
D03*
X198126Y126870D02*
D03*
Y148130D02*
D03*
X139224Y282443D02*
D03*
Y303702D02*
D03*
X9842D02*
D03*
Y282443D02*
D03*
Y462222D02*
D03*
Y440962D02*
D03*
X109503Y439923D02*
D03*
Y461183D02*
D03*
Y575356D02*
D03*
Y554096D02*
D03*
X9842D02*
D03*
Y575356D02*
D03*
D17*
X54814Y268651D02*
D03*
Y273769D02*
D03*
X80503Y319092D02*
D03*
Y313974D02*
D03*
X40503Y334033D02*
D03*
Y339151D02*
D03*
X50503Y334033D02*
D03*
Y339151D02*
D03*
X81003Y250033D02*
D03*
Y255151D02*
D03*
X80503Y269033D02*
D03*
Y274151D02*
D03*
Y333533D02*
D03*
Y338651D02*
D03*
X34503Y467033D02*
D03*
Y472151D02*
D03*
X54857Y256913D02*
D03*
Y262031D02*
D03*
X112554Y183048D02*
D03*
Y177930D02*
D03*
X82554Y183548D02*
D03*
Y178430D02*
D03*
X72554Y183548D02*
D03*
Y178430D02*
D03*
X112554Y158371D02*
D03*
Y163489D02*
D03*
X86865Y118166D02*
D03*
Y113048D02*
D03*
X112554Y118548D02*
D03*
Y113430D02*
D03*
X86907Y106428D02*
D03*
Y101310D02*
D03*
X113054Y99548D02*
D03*
Y94430D02*
D03*
D18*
X122404Y182989D02*
D03*
X128703D02*
D03*
X96653Y338592D02*
D03*
X90354D02*
D03*
D19*
X48729Y470644D02*
D03*
X43808D02*
D03*
X65464Y577092D02*
D03*
X60543D02*
D03*
X41964Y316592D02*
D03*
X37043D02*
D03*
X55964Y319592D02*
D03*
X51043D02*
D03*
X40543Y432092D02*
D03*
X45464D02*
D03*
X82543Y466092D02*
D03*
X87464D02*
D03*
X71043Y472592D02*
D03*
X75964D02*
D03*
X83093Y163989D02*
D03*
X88014D02*
D03*
X69093Y160989D02*
D03*
X74014D02*
D03*
D20*
X70110Y451196D02*
D03*
Y454660D02*
D03*
X50503Y438360D02*
D03*
Y441824D02*
D03*
D21*
X50346Y327092D02*
D03*
X55661D02*
D03*
X34846Y325092D02*
D03*
X40161D02*
D03*
X86161Y262092D02*
D03*
X80846D02*
D03*
X45161Y424092D02*
D03*
X39846D02*
D03*
X90161Y473592D02*
D03*
X84846D02*
D03*
X87711Y171489D02*
D03*
X82396D02*
D03*
X72211Y169489D02*
D03*
X66896D02*
D03*
X112896Y106489D02*
D03*
X118211D02*
D03*
D22*
X65504Y339435D02*
D03*
Y344750D02*
D03*
X97554Y189147D02*
D03*
Y183832D02*
D03*
D23*
X81500Y602000D02*
D03*
X114504Y257592D02*
D03*
X25000Y411500D02*
D03*
X34000Y489500D02*
D03*
X33500Y602000D02*
D03*
X84000Y489500D02*
D03*
X84000Y419555D02*
D03*
X28000Y256000D02*
D03*
X91000Y355000D02*
D03*
X122771Y199073D02*
D03*
X51271Y102573D02*
D03*
X150271D02*
D03*
D24*
X57236Y304092D02*
D03*
X53771D02*
D03*
X85821Y148489D02*
D03*
X89286D02*
D03*
D25*
X61503Y313128D02*
D03*
Y310057D02*
D03*
X53798Y311810D02*
D03*
Y308739D02*
D03*
X54434Y467038D02*
D03*
Y463967D02*
D03*
X70503Y463557D02*
D03*
Y466628D02*
D03*
X93554Y154454D02*
D03*
Y157525D02*
D03*
X85848Y153136D02*
D03*
Y156207D02*
D03*
D26*
X78311Y450760D02*
D03*
X75240D02*
D03*
X45539Y438092D02*
D03*
X42468D02*
D03*
X39039Y451592D02*
D03*
X35968D02*
D03*
X79539Y459092D02*
D03*
X76468D02*
D03*
D27*
X87025Y293073D02*
D03*
X91946D02*
D03*
X17040D02*
D03*
X12118D02*
D03*
X51461D02*
D03*
X56382D02*
D03*
X25959Y137370D02*
D03*
X30880D02*
D03*
X114340Y137469D02*
D03*
X119262D02*
D03*
X83690Y137428D02*
D03*
X88611D02*
D03*
D28*
X67503Y313037D02*
D03*
Y306147D02*
D03*
X99554Y150544D02*
D03*
Y157434D02*
D03*
D29*
X75444Y306592D02*
D03*
X80563D02*
D03*
X107495Y150989D02*
D03*
X112613D02*
D03*
D30*
X121432Y293073D02*
D03*
X127731D02*
D03*
X179305Y137469D02*
D03*
X185604D02*
D03*
D31*
X56825Y564726D02*
D03*
D32*
X55526Y570573D02*
D03*
X58125D02*
D03*
Y558880D02*
D03*
X55526D02*
D03*
D33*
X62672Y566025D02*
D03*
Y563427D02*
D03*
X50979D02*
D03*
Y566025D02*
D03*
D34*
X43240Y461092D02*
D03*
X47767D02*
D03*
D35*
X58003Y450553D02*
D03*
D36*
X55051Y456458D02*
D03*
X57019D02*
D03*
X58988D02*
D03*
X60956D02*
D03*
Y444647D02*
D03*
X58988D02*
D03*
X57019D02*
D03*
X55051D02*
D03*
D37*
X63909Y453506D02*
D03*
Y451537D02*
D03*
Y449569D02*
D03*
Y447600D02*
D03*
X52098D02*
D03*
Y449569D02*
D03*
Y451537D02*
D03*
Y453506D02*
D03*
D38*
X53504Y577147D02*
D03*
Y584037D02*
D03*
D39*
X59504Y461328D02*
D03*
Y465856D02*
D03*
X65342Y461289D02*
D03*
Y465816D02*
D03*
D40*
X67401Y293073D02*
D03*
X99451Y137469D02*
D03*
D41*
X63464Y300454D02*
D03*
X65432D02*
D03*
X67401D02*
D03*
X69369D02*
D03*
X71338D02*
D03*
Y285691D02*
D03*
X69369D02*
D03*
X67401D02*
D03*
X65432D02*
D03*
X63464D02*
D03*
X95514Y130088D02*
D03*
X97483D02*
D03*
X99451D02*
D03*
X101419D02*
D03*
X103388D02*
D03*
Y144851D02*
D03*
X101419D02*
D03*
X99451D02*
D03*
X97483D02*
D03*
X95514D02*
D03*
D42*
X74783Y297009D02*
D03*
Y295041D02*
D03*
Y293073D02*
D03*
Y291104D02*
D03*
Y289136D02*
D03*
X60019D02*
D03*
Y291104D02*
D03*
Y293073D02*
D03*
Y295041D02*
D03*
Y297009D02*
D03*
X92069Y141407D02*
D03*
Y139438D02*
D03*
Y137469D02*
D03*
Y135501D02*
D03*
Y133533D02*
D03*
X106833D02*
D03*
Y135501D02*
D03*
Y137469D02*
D03*
Y139438D02*
D03*
Y141407D02*
D03*
D76*
X99441Y150432D02*
X99554Y150544D01*
X99441Y146903D02*
Y150432D01*
X69500Y281500D02*
X70086Y280914D01*
X103672Y125172D02*
X105733D01*
X72211Y169489D02*
X72382Y169660D01*
Y178259D01*
X72554Y178430D01*
X72771Y165073D02*
Y168929D01*
X72211Y169489D02*
X72771Y168929D01*
X73227Y161777D02*
Y164617D01*
Y161777D02*
X74014Y160989D01*
X72771Y165073D02*
X73227Y164617D01*
X76708Y153136D02*
X85848D01*
X74014Y155829D02*
Y160989D01*
Y155829D02*
X76708Y153136D01*
X85821Y148489D02*
X85835Y148503D01*
Y153123D01*
X85848Y153136D01*
X82475Y171411D02*
Y178351D01*
Y171411D02*
X82745Y171141D01*
X82475Y178351D02*
X82554Y178430D01*
X82745Y164338D02*
X83093Y163989D01*
X82745Y164338D02*
Y171141D01*
X85271Y160073D02*
X91006D01*
X83881Y161463D02*
X85271Y160073D01*
X91006D02*
X93259Y157820D01*
X93278D02*
X93599Y157499D01*
X93259Y157820D02*
X93278D01*
X93599Y157479D02*
Y157499D01*
X83881Y161463D02*
Y163202D01*
X83093Y163989D02*
X83881Y163202D01*
X99509Y157479D02*
X99554Y157434D01*
X91855Y148489D02*
X95291Y145053D01*
X89286Y148489D02*
X91855D01*
X61252Y280000D02*
X63471Y282219D01*
X63694Y460600D02*
X64948D01*
X61885Y458790D02*
X63694Y460600D01*
X65342Y460993D02*
Y461150D01*
X64948Y460600D02*
X65342Y460993D01*
X63164Y299965D02*
Y301336D01*
X61500Y303000D02*
X63164Y301336D01*
X52204Y456951D02*
X54657D01*
X48063Y461092D02*
X52204Y456951D01*
D77*
X59000Y458000D02*
Y460825D01*
X59504Y461328D01*
X99451Y126522D02*
X100792Y125181D01*
X99451Y126522D02*
Y130088D01*
X95503Y127804D02*
Y130076D01*
X94271Y126573D02*
X95503Y127804D01*
Y130076D02*
X95514Y130088D01*
X94419Y461247D02*
X98952Y456714D01*
X94419Y461247D02*
Y490912D01*
X87465Y497866D02*
X94419Y490912D01*
X77277Y497866D02*
X87465D01*
X58003Y478592D02*
X77277Y497866D01*
X95291Y144200D02*
Y145053D01*
X99441Y144861D02*
Y146903D01*
Y144861D02*
X99451Y144851D01*
X67410Y283590D02*
X69500Y281500D01*
X67410Y283590D02*
Y285681D01*
X63473Y283527D02*
Y285681D01*
X63464Y285691D02*
X63473Y285681D01*
X67401Y285691D02*
X67410Y285681D01*
X67401Y300454D02*
Y302901D01*
D78*
X61161Y458000D02*
Y458067D01*
X61885Y458790D01*
X112357Y118548D02*
X112554D01*
X103663Y125181D02*
X103672Y125172D01*
X100792Y125181D02*
X103663D01*
X103609Y145072D02*
X104690Y146153D01*
X103398Y145072D02*
X103609D01*
X63471Y282219D02*
Y283524D01*
X67401Y302901D02*
X67500Y303000D01*
D79*
X39104Y451527D02*
X50500D01*
X1780Y564735D02*
X51693D01*
X62255Y564733D02*
X117568D01*
X206181Y137485D02*
X206196Y137500D01*
X185619Y137485D02*
X206181D01*
X185604Y137469D02*
X185619Y137485D01*
X119262Y137469D02*
X179305D01*
X106833D02*
X114340D01*
X88611Y137428D02*
X88632Y137449D01*
X92049D01*
X30910Y137399D02*
X83661D01*
X30880Y137370D02*
X30910Y137399D01*
X83661D02*
X83690Y137428D01*
X1773Y137370D02*
X25959D01*
X117471Y450657D02*
X117574Y450553D01*
X78311Y450760D02*
X78414Y450657D01*
X64172Y450760D02*
X75240D01*
X78414Y450657D02*
X117471D01*
X74783Y293073D02*
X87025D01*
X64003Y450592D02*
X64172Y450760D01*
X1771Y451592D02*
X35968D01*
X127731Y293073D02*
X147295D01*
X91946D02*
X121432D01*
X1771D02*
X12118D01*
X17040D02*
X51461D01*
X56382D02*
X60019D01*
D80*
X73544Y280914D02*
X79618Y274840D01*
X70086Y280914D02*
X73544D01*
X112975Y99627D02*
X113054Y99548D01*
X112896Y106489D02*
X112975Y106411D01*
Y99627D02*
Y106411D01*
X112725Y106660D02*
Y113259D01*
Y106660D02*
X112896Y106489D01*
X112554Y113430D02*
X112725Y113259D01*
X105733Y125172D02*
X112357Y118548D01*
X86886Y106449D02*
Y113027D01*
Y106449D02*
X86907Y106428D01*
X86865Y113048D02*
X86886Y113027D01*
X86534Y118859D02*
X86558D01*
X94271Y126573D01*
X48963Y470214D02*
Y471676D01*
X112554Y163489D02*
Y177930D01*
X112583Y151019D02*
X112613Y150989D01*
X112583Y151019D02*
Y158342D01*
X112554Y158371D02*
X112583Y158342D01*
X104690Y146153D02*
X106806Y148269D01*
Y150300D01*
X107495Y150989D01*
X93599Y157479D02*
X99509D01*
X54355Y467136D02*
X54434Y467058D01*
X49804Y469857D02*
X52525Y467136D01*
X48963Y470214D02*
X49320Y469857D01*
X54434Y467038D02*
Y467058D01*
X52525Y467136D02*
X54355D01*
X49320Y469857D02*
X49804D01*
X47472Y461092D02*
X47767D01*
X47275Y461289D02*
Y462756D01*
X45986Y464045D02*
X47275Y462756D01*
X40065Y464045D02*
X45986D01*
X47767Y461092D02*
X48063D01*
X47275Y461289D02*
X47472Y461092D01*
X80846Y262092D02*
X80925Y262014D01*
X80675Y262263D02*
X80846Y262092D01*
X80925Y255230D02*
Y262014D01*
Y255230D02*
X81003Y255151D01*
X80675Y262263D02*
Y268862D01*
X80503Y269033D02*
X80675Y268862D01*
X54836Y262052D02*
Y268630D01*
Y262052D02*
X54857Y262031D01*
X54814Y268651D02*
X54836Y268630D01*
X79618Y274840D02*
X80125D01*
X80682Y274283D01*
X54814Y273769D02*
X55011D01*
X61242Y280000D01*
X89933Y339014D02*
X90354Y338592D01*
X80503Y319092D02*
Y333533D01*
X80533Y306622D02*
Y313945D01*
X80503Y313974D02*
X80533Y313945D01*
Y306622D02*
X80563Y306592D01*
X72000Y301000D02*
X72500D01*
X74755Y303255D01*
Y305903D01*
X75444Y306592D01*
X50425Y327013D02*
Y333954D01*
Y327013D02*
X50694Y326744D01*
X50425Y333954D02*
X50503Y334033D01*
X50694Y319941D02*
X51043Y319592D01*
X50694Y319941D02*
Y326744D01*
X40503Y339151D02*
X40645Y339293D01*
X65362D02*
X65504Y339435D01*
X40332Y333862D02*
X40503Y334033D01*
X40161Y325092D02*
X40332Y325264D01*
Y333862D01*
X42000Y316628D02*
Y321000D01*
X41964Y316592D02*
X42000Y316628D01*
X40948Y322052D02*
Y324305D01*
X40161Y325092D02*
X40948Y324305D01*
Y322052D02*
X42000Y321000D01*
X42555Y312445D02*
X46261Y308739D01*
X53798D01*
X42555Y312445D02*
Y316002D01*
X41964Y316592D02*
X42555Y316002D01*
X60408Y304092D02*
X61500Y303000D01*
X57236Y304092D02*
X60408D01*
X53771D02*
X53784Y304105D01*
Y308726D02*
X53798Y308739D01*
X53784Y304105D02*
Y308726D01*
X61503Y313128D02*
Y313147D01*
X61425Y313226D02*
X61503Y313147D01*
X61405Y313226D02*
X61425D01*
X59131Y315500D02*
X61405Y313226D01*
X53000Y315500D02*
X59131D01*
X51633Y316867D02*
Y319002D01*
X51043Y319592D02*
X51633Y319002D01*
Y316867D02*
X53000Y315500D01*
X61503Y313116D02*
X61582Y313037D01*
X67503D01*
X61503Y313116D02*
Y313128D01*
X67430Y303070D02*
Y306074D01*
X70082Y455077D02*
Y456582D01*
Y455077D02*
X70110Y455049D01*
X70082Y456582D02*
X72592Y459092D01*
X45161Y424092D02*
X45312Y424244D01*
X45000Y423931D02*
X45161Y424092D01*
X45000Y416500D02*
Y423931D01*
X25000Y411500D02*
X40000D01*
X45000Y416500D01*
X45312Y424244D02*
Y431941D01*
X45464Y432092D01*
X45502Y432130D02*
Y438055D01*
X45464Y432092D02*
X45502Y432130D01*
Y438055D02*
X45539Y438092D01*
X45559D02*
X45826Y438360D01*
X50503D01*
X45539Y438092D02*
X45559D01*
X50500Y445000D02*
X50503Y444997D01*
Y441824D02*
Y444997D01*
X84423Y474015D02*
Y489077D01*
Y474015D02*
X84846Y473592D01*
X84000Y489500D02*
X84423Y489077D01*
X82543Y471092D02*
X84846Y473395D01*
Y473592D01*
X82543Y466092D02*
Y471092D01*
X80000Y466000D02*
X82451D01*
X82543Y466092D01*
X76468Y462468D02*
X80000Y466000D01*
X76468Y459092D02*
Y462468D01*
X72592Y459092D02*
X76468D01*
X34252Y486387D02*
X48963Y471676D01*
X34252Y486387D02*
Y489248D01*
Y472403D02*
Y486387D01*
X34000Y489500D02*
X34252Y489248D01*
Y472403D02*
X34503Y472151D01*
X71043Y476543D02*
X84000Y489500D01*
X71043Y472592D02*
Y476543D01*
X70500Y466631D02*
X70503Y466628D01*
X70500Y466631D02*
Y472049D01*
X71043Y472592D01*
X66153Y466628D02*
X70503D01*
X65342Y465816D02*
Y466111D01*
X65539Y466308D01*
X65834D01*
X66153Y466628D01*
X35108Y466429D02*
X37681D01*
X34503Y467033D02*
X35108Y466429D01*
X37681D02*
X40065Y464045D01*
X59504Y465856D02*
Y466151D01*
X54465Y467007D02*
X58648D01*
X59504Y466151D01*
D81*
X89926Y94418D02*
X113041D01*
X86907Y97436D02*
X89926Y94418D01*
X80405Y338750D02*
X80503Y338651D01*
X65504Y339435D02*
X65700Y339238D01*
X67213D02*
X67254Y339198D01*
X78641D02*
X79089Y338750D01*
X67254Y339198D02*
X78641D01*
X79089Y338750D02*
X80405D01*
X65700Y339238D02*
X67213D01*
X40645Y339293D02*
X50503D01*
X80503Y339014D02*
X89933D01*
X50503Y339293D02*
X65362D01*
X142129Y94430D02*
X150271Y102573D01*
X113054Y94430D02*
X142129D01*
X86907Y97436D02*
Y101310D01*
X122952Y198525D02*
X123500Y199073D01*
X97975Y183411D02*
X121983D01*
X122952Y183537D02*
Y198525D01*
X122404Y182989D02*
X122952Y183537D01*
X97554Y183832D02*
X97975Y183411D01*
X121983D02*
X122404Y182989D01*
X72554Y183548D02*
X82554D01*
X97074D01*
X97357Y183832D01*
X97554D01*
X113030Y257592D02*
X114504D01*
X81003Y250033D02*
X105471D01*
X113030Y257592D01*
X80970Y250000D02*
X81003Y250033D01*
X61967Y250000D02*
X80970D01*
X54857Y256913D02*
X55054D01*
X61967Y250000D01*
X90677Y338915D02*
Y354677D01*
X91000Y355000D01*
X90354Y338592D02*
X90677Y338915D01*
X53504Y584037D02*
X54192Y583348D01*
X53208Y584332D02*
X53504Y584037D01*
X54192Y583348D02*
X57652D01*
X60543Y577092D02*
Y580457D01*
X57652Y583348D02*
X60543Y580457D01*
D82*
X49668Y584332D02*
X53208D01*
X33500Y600500D02*
Y602000D01*
Y600500D02*
X49668Y584332D01*
D83*
X99950Y116720D02*
D03*
Y167114D02*
D03*
X67901Y322600D02*
D03*
X67901Y272206D02*
D03*
D84*
X58003Y428198D02*
D03*
X56826Y595632D02*
D03*
X58003Y478986D02*
D03*
X56826Y545238D02*
D03*
D85*
X191339Y220472D02*
D03*
X183465Y204724D02*
D03*
X191339Y188976D02*
D03*
X183465Y173228D02*
D03*
X191339Y157480D02*
D03*
X183465Y110236D02*
D03*
X191339Y94488D02*
D03*
X183465Y78740D02*
D03*
X175591Y220472D02*
D03*
X167717Y204724D02*
D03*
X175591Y188976D02*
D03*
X167717Y173228D02*
D03*
X175591Y157480D02*
D03*
Y125984D02*
D03*
X167717Y110236D02*
D03*
X175591Y94488D02*
D03*
X167717Y78740D02*
D03*
X159843Y220472D02*
D03*
X151969Y204724D02*
D03*
X159843Y188976D02*
D03*
X151969Y173228D02*
D03*
X159843Y157480D02*
D03*
Y125984D02*
D03*
Y94488D02*
D03*
X151969Y78740D02*
D03*
X136221Y362205D02*
D03*
X144095Y346457D02*
D03*
X136221Y330709D02*
D03*
X144095Y314961D02*
D03*
X136221Y267717D02*
D03*
X144095Y251969D02*
D03*
X136221Y236220D02*
D03*
Y204724D02*
D03*
X144095Y188976D02*
D03*
X136221Y173228D02*
D03*
X144095Y157480D02*
D03*
Y125984D02*
D03*
X136221Y110236D02*
D03*
Y78740D02*
D03*
X120473Y362205D02*
D03*
X128347Y346457D02*
D03*
X120473Y330709D02*
D03*
X128347Y314961D02*
D03*
X120473Y267717D02*
D03*
X128347Y251969D02*
D03*
X120473Y236220D02*
D03*
Y173228D02*
D03*
X128347Y157480D02*
D03*
Y125984D02*
D03*
X120473Y78740D02*
D03*
X112599Y598425D02*
D03*
X104725Y582677D02*
D03*
X112599Y535433D02*
D03*
X104725Y519685D02*
D03*
X112599Y503937D02*
D03*
X104725Y488189D02*
D03*
X112599Y472441D02*
D03*
X104725Y425197D02*
D03*
X112599Y409449D02*
D03*
X104725Y393701D02*
D03*
X112599Y377953D02*
D03*
X104725Y362205D02*
D03*
X112599Y346457D02*
D03*
X104725Y330709D02*
D03*
X112599Y314961D02*
D03*
X104725Y267717D02*
D03*
Y236220D02*
D03*
Y204724D02*
D03*
X112599Y188976D02*
D03*
Y125984D02*
D03*
X104725Y78740D02*
D03*
X96851Y598425D02*
D03*
X88976Y582677D02*
D03*
Y551181D02*
D03*
X96851Y535433D02*
D03*
X88976Y519685D02*
D03*
X96851Y503937D02*
D03*
Y472441D02*
D03*
Y409449D02*
D03*
X88976Y393701D02*
D03*
X96851Y377953D02*
D03*
Y346457D02*
D03*
X88976Y330709D02*
D03*
X96851Y314961D02*
D03*
X88976Y267717D02*
D03*
Y236220D02*
D03*
Y204724D02*
D03*
Y78740D02*
D03*
X73228Y582677D02*
D03*
Y551181D02*
D03*
X81102Y535433D02*
D03*
X73228Y519685D02*
D03*
X81102Y503937D02*
D03*
X73228Y488189D02*
D03*
Y425197D02*
D03*
X81102Y409449D02*
D03*
X73228Y393701D02*
D03*
X81102Y377953D02*
D03*
X73228Y362205D02*
D03*
X81102Y346457D02*
D03*
X73228Y330709D02*
D03*
Y236220D02*
D03*
Y204724D02*
D03*
X81102Y188976D02*
D03*
Y125984D02*
D03*
X73228Y110236D02*
D03*
X81102Y94488D02*
D03*
X73228Y78740D02*
D03*
X65354Y535433D02*
D03*
X57480Y519685D02*
D03*
X65354Y503937D02*
D03*
Y472441D02*
D03*
Y409449D02*
D03*
X57480Y393701D02*
D03*
X65354Y377953D02*
D03*
X57480Y362205D02*
D03*
Y236220D02*
D03*
Y204724D02*
D03*
X65354Y188976D02*
D03*
X57480Y173228D02*
D03*
X65354Y157480D02*
D03*
Y125984D02*
D03*
X57480Y110236D02*
D03*
X65354Y94488D02*
D03*
X57480Y78740D02*
D03*
X41732Y582677D02*
D03*
Y551181D02*
D03*
X49606Y535433D02*
D03*
X41732Y519685D02*
D03*
X49606Y503937D02*
D03*
Y409449D02*
D03*
X41732Y393701D02*
D03*
X49606Y377953D02*
D03*
X41732Y362205D02*
D03*
X49606Y346457D02*
D03*
X41732Y267717D02*
D03*
X49606Y251969D02*
D03*
X41732Y236220D02*
D03*
Y204724D02*
D03*
X49606Y188976D02*
D03*
X41732Y173228D02*
D03*
X49606Y157480D02*
D03*
Y125984D02*
D03*
X41732Y110236D02*
D03*
Y78740D02*
D03*
X25984Y582677D02*
D03*
Y551181D02*
D03*
X33858Y535433D02*
D03*
X25984Y519685D02*
D03*
X33858Y503937D02*
D03*
X25984Y425197D02*
D03*
Y393701D02*
D03*
X33858Y377953D02*
D03*
X25984Y362205D02*
D03*
X33858Y346457D02*
D03*
X25984Y330709D02*
D03*
Y267717D02*
D03*
Y236220D02*
D03*
Y204724D02*
D03*
X33858Y188976D02*
D03*
X25984Y173228D02*
D03*
X33858Y157480D02*
D03*
Y125984D02*
D03*
X25984Y110236D02*
D03*
X33858Y94488D02*
D03*
X25984Y78740D02*
D03*
X18110Y598425D02*
D03*
X10236Y582677D02*
D03*
X18110Y535433D02*
D03*
X10236Y519685D02*
D03*
X18110Y503937D02*
D03*
X10236Y488189D02*
D03*
X18110Y472441D02*
D03*
X10236Y425197D02*
D03*
Y393701D02*
D03*
X18110Y377953D02*
D03*
X10236Y362205D02*
D03*
X18110Y346457D02*
D03*
X10236Y330709D02*
D03*
X18110Y314961D02*
D03*
X10236Y267717D02*
D03*
X18110Y251969D02*
D03*
X10236Y236220D02*
D03*
Y204724D02*
D03*
X18110Y188976D02*
D03*
X10236Y173228D02*
D03*
X18110Y157480D02*
D03*
X10236Y110236D02*
D03*
X18110Y94488D02*
D03*
X10236Y78740D02*
D03*
X103178Y544601D02*
D03*
X8500Y543500D02*
D03*
X198500Y79000D02*
D03*
X197000Y110500D02*
D03*
X198000Y173500D02*
D03*
X196500Y206500D02*
D03*
X114000Y277000D02*
D03*
X96500Y277500D02*
D03*
X45000Y278000D02*
D03*
X30000Y277000D02*
D03*
X31500Y309000D02*
D03*
X97000Y431500D02*
D03*
X87500Y437500D02*
D03*
X71500Y436500D02*
D03*
X28000Y437000D02*
D03*
X21000Y434500D02*
D03*
X102000Y610000D02*
D03*
X67000Y610500D02*
D03*
X50000Y611000D02*
D03*
X9500Y609000D02*
D03*
X60711Y309276D02*
D03*
X131289Y186263D02*
D03*
X127515Y186210D02*
D03*
X106771Y553976D02*
D03*
X105586Y575374D02*
D03*
X53255Y463434D02*
D03*
X4322Y554059D02*
D03*
X13717Y462297D02*
D03*
X8913Y462303D02*
D03*
X70719Y293047D02*
D03*
X67296D02*
D03*
X61767Y442684D02*
D03*
X58083Y442410D02*
D03*
X54827Y442537D02*
D03*
X99043Y341487D02*
D03*
X55892Y460297D02*
D03*
X106291Y131321D02*
D03*
X92819Y153140D02*
D03*
X55883Y312198D02*
D03*
X40646Y437947D02*
D03*
X69329Y462277D02*
D03*
X11573Y148325D02*
D03*
X7099D02*
D03*
X2939Y148199D02*
D03*
X11447Y126329D02*
D03*
X7099Y126392D02*
D03*
X2561D02*
D03*
X205534Y148417D02*
D03*
X200821Y148361D02*
D03*
X196276D02*
D03*
X195771Y126872D02*
D03*
X200428Y126816D02*
D03*
X204748Y126872D02*
D03*
X201973Y133113D02*
D03*
X196500Y133000D02*
D03*
X191190Y133007D02*
D03*
X202000Y142000D02*
D03*
X196500D02*
D03*
X191253Y141863D02*
D03*
X186000Y143000D02*
D03*
Y132000D02*
D03*
X112000Y142000D02*
D03*
Y133000D02*
D03*
X173935Y141960D02*
D03*
X167636D02*
D03*
X161336D02*
D03*
X155037D02*
D03*
X148738D02*
D03*
X142439D02*
D03*
X136140D02*
D03*
X129840D02*
D03*
X123541D02*
D03*
X117352Y142004D02*
D03*
X117842Y132779D02*
D03*
X124767Y132979D02*
D03*
X131066D02*
D03*
X137366D02*
D03*
X143665D02*
D03*
X149964D02*
D03*
X156263D02*
D03*
X162563D02*
D03*
X168862D02*
D03*
X174000Y133000D02*
D03*
X180000Y132000D02*
D03*
X179856Y143036D02*
D03*
X88378Y132725D02*
D03*
X80665Y141818D02*
D03*
X75087Y141890D02*
D03*
X68787D02*
D03*
X62488D02*
D03*
X56189D02*
D03*
X49890D02*
D03*
X43591D02*
D03*
X37291D02*
D03*
X33500Y133000D02*
D03*
X40106Y132909D02*
D03*
X46405D02*
D03*
X52705D02*
D03*
X59004D02*
D03*
X65303D02*
D03*
X71602D02*
D03*
X77901D02*
D03*
X83750Y132725D02*
D03*
X86186Y141940D02*
D03*
X6630Y132948D02*
D03*
X12788Y132974D02*
D03*
X19259Y133001D02*
D03*
X25811Y132982D02*
D03*
X30038Y141762D02*
D03*
X23383Y141686D02*
D03*
X17109Y141861D02*
D03*
X10810D02*
D03*
X5500Y142000D02*
D03*
X107743Y112847D02*
D03*
X91739Y114790D02*
D03*
X107784Y100104D02*
D03*
X108568Y167099D02*
D03*
X89334Y152238D02*
D03*
X78299Y288469D02*
D03*
X112294Y446339D02*
D03*
X107292Y446126D02*
D03*
X101655Y446132D02*
D03*
X96062Y446106D02*
D03*
X91099Y446063D02*
D03*
X86092Y445976D02*
D03*
X81271Y446072D02*
D03*
X77271D02*
D03*
X72771D02*
D03*
X112271Y455072D02*
D03*
X107771D02*
D03*
X103271D02*
D03*
X93271D02*
D03*
X107370Y161065D02*
D03*
X99447Y137386D02*
D03*
X99390Y141240D02*
D03*
X102959Y141212D02*
D03*
X102988Y137529D02*
D03*
X103159Y133760D02*
D03*
X99419Y133788D02*
D03*
X95735Y133760D02*
D03*
X95850Y137557D02*
D03*
Y141183D02*
D03*
X47771Y106572D02*
D03*
X46271Y102573D02*
D03*
X47271Y99072D02*
D03*
X51271Y97072D02*
D03*
X55271Y99072D02*
D03*
X56771Y103073D02*
D03*
X55271Y106572D02*
D03*
X51271Y108072D02*
D03*
X106028Y157299D02*
D03*
X108636Y172582D02*
D03*
X102916Y176783D02*
D03*
X95051Y176514D02*
D03*
X89271Y156572D02*
D03*
X79326Y157651D02*
D03*
X78552Y164087D02*
D03*
X77240Y171060D02*
D03*
X77717Y177973D02*
D03*
X99447Y106005D02*
D03*
X106467Y106831D02*
D03*
X102916Y99811D02*
D03*
X94161Y101380D02*
D03*
X93418Y108566D02*
D03*
X97153Y124969D02*
D03*
X118271Y104572D02*
D03*
Y108572D02*
D03*
X102428Y128116D02*
D03*
X84097Y156414D02*
D03*
X89709Y164041D02*
D03*
X68924Y158999D02*
D03*
X68831Y163248D02*
D03*
X88489Y169434D02*
D03*
X88304Y173684D02*
D03*
X66757Y167410D02*
D03*
X66774Y171868D02*
D03*
X100154Y189205D02*
D03*
X95071Y189123D02*
D03*
X131028Y179894D02*
D03*
X127405Y179741D02*
D03*
X106890Y142733D02*
D03*
X92167Y132070D02*
D03*
X91972Y142996D02*
D03*
X103500Y154000D02*
D03*
X94776Y150162D02*
D03*
X137161Y303939D02*
D03*
X141769Y303875D02*
D03*
X145993Y303811D02*
D03*
X138185Y282564D02*
D03*
X142153D02*
D03*
X146121Y282436D02*
D03*
X134271Y288573D02*
D03*
X140271D02*
D03*
X139771Y297572D02*
D03*
X134271D02*
D03*
X129387Y286671D02*
D03*
X124538D02*
D03*
X119931Y286706D02*
D03*
X129000Y299500D02*
D03*
X124053Y299522D02*
D03*
X119238Y299418D02*
D03*
X116086Y288472D02*
D03*
X81771Y288573D02*
D03*
X86771D02*
D03*
X92271D02*
D03*
X78271Y297572D02*
D03*
X83271D02*
D03*
X113727Y297563D02*
D03*
X107428D02*
D03*
X101129D02*
D03*
X94831Y297718D02*
D03*
X88537Y297485D02*
D03*
X98390Y288582D02*
D03*
X104689D02*
D03*
X110988D02*
D03*
X13091Y282119D02*
D03*
X8078D02*
D03*
X2835D02*
D03*
X13840Y303783D02*
D03*
X8424Y303841D02*
D03*
X3066Y303668D02*
D03*
X56485Y288228D02*
D03*
X48061Y297611D02*
D03*
X6271Y298073D02*
D03*
X11322Y298101D02*
D03*
X9023Y288416D02*
D03*
X10912Y456480D02*
D03*
X42008Y297563D02*
D03*
X35709D02*
D03*
X29410D02*
D03*
X23111D02*
D03*
X16829Y298026D02*
D03*
X14180Y288416D02*
D03*
X20477Y288582D02*
D03*
X26777D02*
D03*
X33076D02*
D03*
X39375D02*
D03*
X45674D02*
D03*
X51956Y288119D02*
D03*
X53913Y297898D02*
D03*
X71546Y309599D02*
D03*
X51866Y312309D02*
D03*
X57335Y307736D02*
D03*
X70630Y284496D02*
D03*
X74878Y298411D02*
D03*
X74801Y287826D02*
D03*
X59957D02*
D03*
X59901Y298513D02*
D03*
X73000Y462500D02*
D03*
X79500Y474000D02*
D03*
X48339Y466406D02*
D03*
X42560Y468349D02*
D03*
X42455Y472892D02*
D03*
X105500Y461000D02*
D03*
X110565Y460857D02*
D03*
X115000Y461000D02*
D03*
X106466Y439614D02*
D03*
X111287D02*
D03*
X115718Y439808D02*
D03*
X14025Y440780D02*
D03*
X8743Y440665D02*
D03*
X3805D02*
D03*
X4000Y462500D02*
D03*
X86000Y260000D02*
D03*
Y264000D02*
D03*
X24000Y260000D02*
D03*
X22500Y256000D02*
D03*
X24000Y252500D02*
D03*
X28000Y250500D02*
D03*
X31500Y252500D02*
D03*
X33500Y256500D02*
D03*
X31500Y260000D02*
D03*
X28000Y261500D02*
D03*
X68500Y260000D02*
D03*
X75500Y261500D02*
D03*
X72000Y255500D02*
D03*
X63500Y256500D02*
D03*
X60500Y262500D02*
D03*
X67357Y289517D02*
D03*
X70582Y289621D02*
D03*
X70894Y296660D02*
D03*
X67392Y296799D02*
D03*
X63855Y289413D02*
D03*
Y293054D02*
D03*
X63890Y296764D02*
D03*
X66124Y280887D02*
D03*
X77000Y327500D02*
D03*
X65500Y334500D02*
D03*
X73000D02*
D03*
X59000D02*
D03*
X74822Y316271D02*
D03*
X74774Y312362D02*
D03*
X99131Y335571D02*
D03*
X95462Y335690D02*
D03*
X95403Y341490D02*
D03*
X57511Y319724D02*
D03*
X55686Y324784D02*
D03*
X55633Y329269D02*
D03*
X47500Y314500D02*
D03*
X46000Y321000D02*
D03*
X45000Y327500D02*
D03*
X45500Y334500D02*
D03*
X62929Y306316D02*
D03*
X36679Y314536D02*
D03*
X36781Y318648D02*
D03*
X34885Y322758D02*
D03*
X34793Y327238D02*
D03*
X67500Y345000D02*
D03*
X63500D02*
D03*
X83000Y455000D02*
D03*
X98771Y455072D02*
D03*
X88271D02*
D03*
X74418Y455355D02*
D03*
X68718Y445785D02*
D03*
X78391Y455403D02*
D03*
X44690Y446965D02*
D03*
X46754Y455896D02*
D03*
X41595Y456750D02*
D03*
X7831Y446705D02*
D03*
X14130D02*
D03*
X20429D02*
D03*
X26728D02*
D03*
X33027D02*
D03*
X39317Y447057D02*
D03*
X36099Y456825D02*
D03*
X29810Y456480D02*
D03*
X23510D02*
D03*
X17211D02*
D03*
X6271Y456572D02*
D03*
X63848Y445419D02*
D03*
X74500Y466500D02*
D03*
X80500Y479000D02*
D03*
X66529Y457346D02*
D03*
X64000Y455000D02*
D03*
X39212Y470730D02*
D03*
X39076Y475950D02*
D03*
X81684Y424892D02*
D03*
X78684Y421392D02*
D03*
Y416892D02*
D03*
X82184Y413892D02*
D03*
X86184D02*
D03*
X89184Y416892D02*
D03*
Y421392D02*
D03*
X86184Y424892D02*
D03*
X59896Y448631D02*
D03*
X56075D02*
D03*
X59941Y452565D02*
D03*
X56143Y452520D02*
D03*
X39636Y421675D02*
D03*
X39659Y426176D02*
D03*
X40303Y429892D02*
D03*
Y434082D02*
D03*
X90334Y471310D02*
D03*
X90254Y475789D02*
D03*
X87448Y463657D02*
D03*
X87470Y468295D02*
D03*
X80802Y459084D02*
D03*
X76064Y470345D02*
D03*
X75978Y474601D02*
D03*
X41568Y460446D02*
D03*
X110500Y554000D02*
D03*
X114500D02*
D03*
X109503Y575356D02*
D03*
X114000Y575500D02*
D03*
X8500Y554000D02*
D03*
X13000D02*
D03*
Y575500D02*
D03*
X8500D02*
D03*
X4500D02*
D03*
X49798Y570354D02*
D03*
X50458Y557709D02*
D03*
X63000Y558000D02*
D03*
X68050Y559845D02*
D03*
X74349D02*
D03*
X80649D02*
D03*
X86948D02*
D03*
X93247D02*
D03*
X99546D02*
D03*
X105845D02*
D03*
X112145D02*
D03*
X109317Y569620D02*
D03*
X103018D02*
D03*
X96719D02*
D03*
X90419D02*
D03*
X84120D02*
D03*
X77821D02*
D03*
X71522D02*
D03*
X65306Y570643D02*
D03*
X45431Y569623D02*
D03*
X39132D02*
D03*
X32833D02*
D03*
X26534D02*
D03*
X20234D02*
D03*
X13935D02*
D03*
X7636D02*
D03*
X9445Y559847D02*
D03*
X15744D02*
D03*
X22043D02*
D03*
X28343D02*
D03*
X34642D02*
D03*
X40941D02*
D03*
X47240D02*
D03*
X83500Y607500D02*
D03*
X86500Y604000D02*
D03*
Y599500D02*
D03*
X83500Y596500D02*
D03*
X79500D02*
D03*
X76000Y599500D02*
D03*
Y604000D02*
D03*
X79000Y607500D02*
D03*
X58681Y556995D02*
D03*
X55000Y557000D02*
D03*
X55165Y566396D02*
D03*
X58486Y563068D02*
D03*
X58505Y566419D02*
D03*
X55098Y563012D02*
D03*
X65523Y579596D02*
D03*
X65566Y574730D02*
D03*
M02*
