G04*
G04 #@! TF.GenerationSoftware,Altium Limited,Altium Designer,22.10.1 (41)*
G04*
G04 Layer_Color=32896*
%FSLAX25Y25*%
%MOIN*%
G70*
G04*
G04 #@! TF.SameCoordinates,10B0A499-9DE9-419A-BA03-DC6469FBBFFB*
G04*
G04*
G04 #@! TF.FilePolarity,Positive*
G04*
G01*
G75*
%ADD12C,0.00591*%
D12*
X-18898Y140814D02*
Y142782D01*
Y141798D01*
X-23817D01*
X-24801Y142782D01*
Y143766D01*
X-23817Y144750D01*
X-24801Y138846D02*
Y136878D01*
Y137862D01*
X-18898D01*
X-19882Y138846D01*
X-23817Y133926D02*
X-24801Y132942D01*
Y130975D01*
X-23817Y129991D01*
X-19882D01*
X-18898Y130975D01*
Y132942D01*
X-19882Y133926D01*
X-20866D01*
X-21849Y132942D01*
Y129991D01*
X226867Y133564D02*
Y131596D01*
Y132580D01*
X231786D01*
X232770Y131596D01*
Y130613D01*
X231786Y129629D01*
X232770Y139468D02*
Y135532D01*
X228835Y139468D01*
X227851D01*
X226867Y138484D01*
Y136516D01*
X227851Y135532D01*
Y141436D02*
X226867Y142420D01*
Y144387D01*
X227851Y145371D01*
X231786D01*
X232770Y144387D01*
Y142420D01*
X231786Y141436D01*
X227851D01*
X168949Y311767D02*
Y309799D01*
Y310783D01*
X173869D01*
X174853Y309799D01*
Y308815D01*
X173869Y307832D01*
X174853Y313735D02*
Y315703D01*
Y314719D01*
X168949D01*
X169933Y313735D01*
X168949Y322590D02*
X169933Y320623D01*
X171901Y318655D01*
X173869D01*
X174853Y319639D01*
Y321607D01*
X173869Y322590D01*
X172885D01*
X171901Y321607D01*
Y318655D01*
X-19883Y274378D02*
Y276346D01*
Y275362D01*
X-24803D01*
X-25787Y276346D01*
Y277329D01*
X-24803Y278313D01*
X-25787Y272410D02*
Y270442D01*
Y271426D01*
X-19883D01*
X-20867Y272410D01*
X-19883Y263555D02*
Y267490D01*
X-22835D01*
X-21851Y265522D01*
Y264538D01*
X-22835Y263555D01*
X-24803D01*
X-25787Y264538D01*
Y266506D01*
X-24803Y267490D01*
X-20867Y410759D02*
Y412727D01*
Y411743D01*
X-25787D01*
X-26770Y412727D01*
Y413711D01*
X-25787Y414695D01*
X-26770Y408791D02*
Y406823D01*
Y407807D01*
X-20867D01*
X-21851Y408791D01*
X-20867Y403871D02*
Y399936D01*
X-21851D01*
X-25787Y403871D01*
X-26770D01*
X139228Y469248D02*
Y467280D01*
Y468264D01*
X144148D01*
X145132Y467280D01*
Y466296D01*
X144148Y465312D01*
X145132Y471215D02*
Y473183D01*
Y472199D01*
X139228D01*
X140212Y471215D01*
Y476135D02*
X139228Y477119D01*
Y479087D01*
X140212Y480071D01*
X141196D01*
X142180Y479087D01*
X143164Y480071D01*
X144148D01*
X145132Y479087D01*
Y477119D01*
X144148Y476135D01*
X143164D01*
X142180Y477119D01*
X141196Y476135D01*
X140212D01*
X142180Y477119D02*
Y479087D01*
X139228Y583421D02*
Y581453D01*
Y582437D01*
X144148D01*
X145132Y581453D01*
Y580469D01*
X144148Y579485D01*
X145132Y585389D02*
Y587357D01*
Y586373D01*
X139228D01*
X140212Y585389D01*
X145132Y593260D02*
X139228D01*
X142180Y590308D01*
Y594244D01*
X-19883Y546031D02*
Y547999D01*
Y547015D01*
X-24803D01*
X-25787Y547999D01*
Y548983D01*
X-24803Y549967D01*
X-25787Y544063D02*
Y542096D01*
Y543080D01*
X-19883D01*
X-20867Y544063D01*
Y539144D02*
X-19883Y538160D01*
Y536192D01*
X-20867Y535208D01*
X-21851D01*
X-22835Y536192D01*
Y537176D01*
Y536192D01*
X-23819Y535208D01*
X-24803D01*
X-25787Y536192D01*
Y538160D01*
X-24803Y539144D01*
M02*
