G04*
G04 #@! TF.GenerationSoftware,Altium Limited,Altium Designer,22.10.1 (41)*
G04*
G04 Layer_Color=32768*
%FSLAX25Y25*%
%MOIN*%
G70*
G04*
G04 #@! TF.SameCoordinates,10B0A499-9DE9-419A-BA03-DC6469FBBFFB*
G04*
G04*
G04 #@! TF.FilePolarity,Positive*
G04*
G01*
G75*
%ADD10C,0.00787*%
%ADD88C,0.00197*%
D10*
X58247Y283919D02*
Y302226D01*
Y283919D02*
X76554D01*
Y302226D01*
X58247D02*
X76554D01*
X90298Y146623D02*
X108605D01*
Y128316D02*
Y146623D01*
X90298Y128316D02*
X108605D01*
X90298D02*
Y146623D01*
D88*
X-23818Y137370D02*
X-19881D01*
X-21849Y135402D02*
Y139339D01*
X20473Y123197D02*
Y151543D01*
X-38188Y123197D02*
X20473D01*
X-38188D02*
Y151543D01*
X20473D01*
X227850Y137500D02*
X231787D01*
X229819Y135531D02*
Y139469D01*
X187496Y123327D02*
Y151673D01*
X246157D01*
Y123327D02*
Y151673D01*
X187496Y123327D02*
X246157D01*
X168948Y293073D02*
X172885D01*
X170917Y291104D02*
Y295041D01*
X128594Y278899D02*
Y307246D01*
X187255D01*
Y278899D02*
Y307246D01*
X128594Y278899D02*
X187255D01*
X-23819Y293073D02*
X-19882D01*
X-21851Y291104D02*
Y295041D01*
X20472Y278899D02*
Y307246D01*
X-38189Y278899D02*
X20472D01*
X-38189D02*
Y307246D01*
X20472D01*
X-23819Y451592D02*
X-19882D01*
X-21851Y449624D02*
Y453561D01*
X20472Y437419D02*
Y465765D01*
X-38189Y437419D02*
X20472D01*
X-38189D02*
Y465765D01*
X20472D01*
X139228Y450553D02*
X143165D01*
X141196Y448584D02*
Y452521D01*
X98874Y436380D02*
Y464726D01*
X157535D01*
Y436380D02*
Y464726D01*
X98874Y436380D02*
X157535D01*
X98874Y550553D02*
X157535D01*
Y578899D01*
X98874D02*
X157535D01*
X98874Y550553D02*
Y578899D01*
X141196Y562758D02*
Y566695D01*
X139228Y564726D02*
X143165D01*
X-38189Y578899D02*
X20472D01*
X-38189Y550553D02*
Y578899D01*
Y550553D02*
X20472D01*
Y578899D01*
X-21851Y562758D02*
Y566695D01*
X-23819Y564726D02*
X-19882D01*
M02*
