M48
;Layer_Color=9474304
;FILE_FORMAT=2:5
INCH,TZ
;TYPE=PLATED
T1F00S00C0.01181
T2F00S00C0.08268
%
T01
X10236Y78740
X25984
X41732
X33858Y94488
X18110
X10236Y110236
X25984
X41732
X47771Y106572
X51271Y108072
X55271Y106572
Y99072
X51271Y97072
X47271Y99072
X46271Y102573
X49606Y125984
X52705Y132909
X46405
X40106
X33500Y133000
X33858Y125984
X25811Y132982
X19259Y133001
X12788Y132974
X6630Y132948
X7099Y126392
X11447Y126329
X2561Y126392
X5500Y142000
X10810Y141861
X17109
X23383Y141686
X30038Y141762
X37291Y141890
X43591
X49890
X56189
X11573Y148325
X7099
X2939Y148199
X62488Y141890
X68787
X75087
X80665Y141818
X86186Y141940
X91972Y142996
X95850Y141183
X99390Y141240
X102959Y141212
X102988Y137529
X99447Y137386
X99419Y133788
X95735Y133760
X95850Y137557
X92167Y132070
X88378Y132725
X83750
X77901Y132909
X71602
X65303
X59004
X65354Y125984
X81102
X97153Y124969
X102428Y128116
X103159Y133760
X106291Y131321
X112000Y133000
X117842Y132779
X124767Y132979
X131066
X137366
X143665
X149964
X156263
X162563
X168862
X174000Y133000
X180000Y132000
X186000
X191190Y133007
X196500Y133000
X201973Y133113
X200428Y126816
X204748Y126872
X195771
X196500Y142000
X191253Y141863
X186000Y143000
X179856Y143036
X173935Y141960
X167636
X161336
X155037
X148738
X142439
X136140
X129840
X123541
X117352Y142004
X112000Y142000
X106890Y142733
X103500Y154000
X92819Y153140
X89334Y152238
X94776Y150162
X91739Y114790
X93418Y108566
X94161Y101380
X99447Y106005
X106467Y106831
X107743Y112847
X107784Y100104
X102916Y99811
X118271Y104572
Y108572
X136221Y110236
X144095Y125984
X159843
X175591
X167717Y110236
X183465
X197000Y110500
X191339Y94488
X175591
X159843
X151969Y78740
X167717
X183465
X198500Y79000
X136221Y78740
X120473
X104725
X88976
X73228
X57480
X65354Y94488
X81102
X73228Y110236
X57480
X56771Y103073
X112599Y125984
X128347
X202000Y142000
X200821Y148361
X196276
X205534Y148417
X191339Y157480
X175591
X159843
X144095
X128347
X106028Y157299
X107370Y161065
X108568Y167099
X108636Y172582
X102916Y176783
X95051Y176514
X88304Y173684
X88489Y169434
X89709Y164041
X89271Y156572
X84097Y156414
X79326Y157651
X78552Y164087
X77240Y171060
X77717Y177973
X81102Y188976
X95071Y189123
X100154Y189205
X112599Y188976
X127515Y186210
X131289Y186263
X131028Y179894
X127405Y179741
X120473Y173228
X136221
X151969
X167717
X183465
X198000Y173500
X191339Y188976
X175591
X159843
X144095
X136221Y204724
X151969
X167717
X183465
X196500Y206500
X191339Y220472
X175591
X159843
X136221Y236220
X120473
X104725
X88976
X73228
X57480
X63500Y256500
X68500Y260000
X72000Y255500
X75500Y261500
X86000Y260000
Y264000
X88976Y267717
X104725
X120473
X136221
X138185Y282564
X142153
X146121Y282436
X140271Y288573
X134271
X129387Y286671
X124538
X119931Y286706
X116086Y288472
X110988Y288582
X104689
X98390
X92271Y288573
X86771
X81771
X78299Y288469
X74801Y287826
X70582Y289621
X67357Y289517
X67296Y293047
X70719
X70894Y296660
X67392Y296799
X63890Y296764
X63855Y293054
Y289413
X59957Y287826
X56485Y288228
X59901Y298513
X62929Y306316
X60711Y309276
X57335Y307736
X71546Y309599
X74774Y312362
X74878Y298411
X78271Y297572
X83271
X88537Y297485
X94831Y297718
X101129Y297563
X107428
X113727
X119238Y299418
X124053Y299522
X129000Y299500
X134271Y297572
X139771
X141769Y303875
X145993Y303811
X137161Y303939
X114000Y277000
X96500Y277500
X70630Y284496
X66124Y280887
X60500Y262500
X57480Y204724
X73228
X88976
X104725
X65354Y188976
X66774Y171868
X66757Y167410
X68831Y163248
X68924Y158999
X65354Y157480
X57480Y173228
X128347Y251969
X144095
X49606
X31500Y252500
X28000Y250500
X24000Y252500
X22500Y256000
X24000Y260000
X28000Y261500
X31500Y260000
X33500Y256500
X25984Y267717
X30000Y277000
X33076Y288582
X26777
X20477
X14180Y288416
X9023Y288416
X8078Y282119
X13091
X2835
X6271Y298073
X11322Y298101
X16829Y298026
X23111Y297563
X29410
X35709
X42008
X48061Y297611
X53913Y297898
X51956Y288119
X45674Y288582
X39375
X45000Y278000
X41732Y267717
Y236220
X25984
X10236
X18110Y251969
X10236Y267717
X8424Y303841
X13840Y303783
X3066Y303668
X31500Y309000
X51866Y312309
X55883Y312198
X41732Y204724
X25984
X10236
X18110Y188976
X33858
X49606
X41732Y173228
X25984
X10236
X18110Y157480
X33858
X49606
X47500Y314500
X46000Y321000
X45000Y327500
X45500Y334500
X55633Y329269
X55686Y324784
X34885Y322758
X34793Y327238
X36781Y318648
X36679Y314536
X18110Y314961
X10236Y330709
X25984
X33858Y346457
X49606
X41732Y362205
X25984
X10236
X18110Y377953
X33858
X49606
X41732Y393701
X25984
X10236
Y425197
X25984
X28000Y437000
X21000Y434500
X20429Y446705
X14130
X14025Y440780
X8743Y440665
X3805
X7831Y446705
X6271Y456572
X10912Y456480
X17211
X23510
X29810
X36099Y456825
X41595Y456750
X41568Y460446
X42560Y468349
X48339Y466406
X53255Y463434
X55892Y460297
X56143Y452520
X56075Y448631
X54827Y442537
X44690Y446965
X39317Y447057
X33027Y446705
X26728
X40646Y437947
X40303Y434082
Y429892
X39659Y426176
X39636Y421675
X49606Y409449
X46754Y455896
X13717Y462297
X8913Y462303
X4000Y462500
X18110Y346457
X63500Y345000
X67500
X65500Y334500
X59000
X73000
X73228Y330709
X77000Y327500
X74822Y316271
X57511Y319724
X88976Y330709
X95462Y335690
X99131Y335571
X99043Y341487
X95403Y341490
X96851Y346457
X112599
X128347
X144095
X136221Y362205
X120473
X104725
X112599Y377953
X96851
X81102
X65354
X57480Y393701
X73228
X88976
X104725
X112599Y409449
X96851
X86184Y413892
X82184
X81102Y409449
X78684Y416892
Y421392
X81684Y424892
X86184
X89184Y421392
Y416892
X87500Y437500
X86092Y445976
X81271Y446072
X77271
X72771
X68718Y445785
X63848Y445419
X61767Y442684
X58083Y442410
X59896Y448631
X59941Y452565
X64000Y455000
X66529Y457346
X69329Y462277
X73000Y462500
X74500Y466500
X74418Y455355
X78391Y455403
X83000Y455000
X88271Y455072
X93271
X98771
X103271
X107771
X112271
X110565Y460857
X115000Y461000
X105500
X107292Y446126
X112294Y446339
X111287Y439614
X115718Y439808
X106466Y439614
X101655Y446132
X96062Y446106
X91099Y446063
X97000Y431500
X104725Y425197
X73228
X71500Y436500
X80802Y459084
X87448Y463657
X87470Y468295
X65354Y409449
X57480Y362205
X73228
X81102Y346457
X104725Y330709
X120473
X136221
X144095Y314961
X128347
X112599
X96851
Y472441
X90334Y471310
X90254Y475789
X79500Y474000
X75978Y474601
X76064Y470345
X65354Y472441
X80500Y479000
X73228Y488189
X81102Y503937
X96851
X112599
X104725Y519685
X88976
X73228
X57480
X65354Y535433
X81102
X96851
X103178Y544601
X106771Y553976
X110500Y554000
X114500
X112145Y559845
X105845
X99546
X93247
X86948
X80649
X74349
X68050
X63000Y558000
X58681Y556995
X58486Y563068
X58505Y566419
X65306Y570643
X65566Y574730
X65523Y579596
X73228Y582677
X71522Y569620
X77821
X84120
X90419
X96719
X103018
X109317
X109503Y575356
X105586Y575374
X104725Y582677
X88976
X86500Y599500
Y604000
X83500Y607500
X79000
X76000Y604000
Y599500
X79500Y596500
X83500
X96851Y598425
X112599
X102000Y610000
X67000Y610500
X73228Y551181
X88976
X112599Y535433
X114000Y575500
X104725Y488189
X112599Y472441
X65354Y503937
X49606
X33858
X18110
X10236Y519685
X25984
X41732
X49606Y535433
X33858
X18110
X8500Y543500
X8500Y554000
X4322Y554059
X13000Y554000
X15744Y559847
X9445
X7636Y569623
X13935
X20234
X26534
X32833
X39132
X45431
X49798Y570354
X55165Y566396
X55098Y563012
X55000Y557000
X50458Y557709
X47240Y559847
X40941
X34642
X28343
X22043
X25984Y551181
X41732
Y582677
X25984
X10236
X8500Y575500
X4500
X13000
X18110Y598425
X9500Y609000
X50000Y611000
X42455Y472892
X39212Y470730
X39076Y475950
X18110Y472441
X10236Y488189
T02
X99950Y116720
Y167114
X67901Y272206
X67901Y322600
X58003Y428198
Y478986
X56826Y545238
Y595632
M30
