G04*
G04 #@! TF.GenerationSoftware,Altium Limited,Altium Designer,22.10.1 (41)*
G04*
G04 Layer_Color=32768*
%FSLAX25Y25*%
%MOIN*%
G70*
G04*
G04 #@! TF.SameCoordinates,10B0A499-9DE9-419A-BA03-DC6469FBBFFB*
G04*
G04*
G04 #@! TF.FilePolarity,Positive*
G04*
G01*
G75*
%ADD13C,0.00394*%
D13*
X-6298Y124870D02*
Y149870D01*
X1Y138374D02*
Y145933D01*
X-37401Y148000D02*
X-6298D01*
X-37401Y126740D02*
Y148000D01*
Y126740D02*
X-6298D01*
X1Y136366D02*
X3150D01*
Y138374D01*
X1D02*
X3150D01*
X1Y128807D02*
X18505D01*
X1Y145933D02*
X18505D01*
Y124870D02*
Y128807D01*
Y145933D02*
Y149870D01*
X-6298Y124870D02*
X18505D01*
X-6298Y149870D02*
X18505D01*
X1Y128807D02*
Y136366D01*
X214267Y125000D02*
Y150000D01*
X207968Y128937D02*
Y136496D01*
X214267Y126870D02*
X245370D01*
Y148130D01*
X214267D02*
X245370D01*
X204819Y138504D02*
X207968D01*
X204819Y136496D02*
Y138504D01*
Y136496D02*
X207968D01*
X189464Y146063D02*
X207968D01*
X189464Y128937D02*
X207968D01*
X189464Y146063D02*
Y150000D01*
Y125000D02*
Y128937D01*
Y150000D02*
X214267D01*
X189464Y125000D02*
X214267D01*
X207968Y138504D02*
Y146063D01*
X155366Y280573D02*
Y305573D01*
X149066Y284509D02*
Y292069D01*
X155366Y282443D02*
X186468D01*
Y303702D01*
X155366D02*
X186468D01*
X145917Y294076D02*
X149066D01*
X145917Y292069D02*
Y294076D01*
Y292069D02*
X149066D01*
X130562Y301636D02*
X149066D01*
X130562Y284509D02*
X149066D01*
X130562Y301636D02*
Y305573D01*
Y280573D02*
Y284509D01*
Y305573D02*
X155366D01*
X130562Y280573D02*
X155366D01*
X149066Y294076D02*
Y301636D01*
X-6300Y280573D02*
Y305573D01*
X-0Y294076D02*
Y301636D01*
X-37402Y303702D02*
X-6300D01*
X-37402Y282443D02*
Y303702D01*
Y282443D02*
X-6300D01*
X-0Y292069D02*
X3149D01*
Y294076D01*
X-0D02*
X3149D01*
X-0Y284509D02*
X18504D01*
X-0Y301636D02*
X18504D01*
Y280573D02*
Y284509D01*
Y301636D02*
Y305573D01*
X-6300Y280573D02*
X18504D01*
X-6300Y305573D02*
X18504D01*
X-0Y284509D02*
Y292069D01*
X-6300Y439092D02*
Y464092D01*
X-0Y452596D02*
Y460155D01*
X-37402Y462222D02*
X-6300D01*
X-37402Y440962D02*
Y462222D01*
Y440962D02*
X-6300D01*
X-0Y450588D02*
X3149D01*
Y452596D01*
X-0D02*
X3149D01*
X-0Y443029D02*
X18504D01*
X-0Y460155D02*
X18504D01*
Y439092D02*
Y443029D01*
Y460155D02*
Y464092D01*
X-6300Y439092D02*
X18504D01*
X-6300Y464092D02*
X18504D01*
X-0Y443029D02*
Y450588D01*
X125645Y438053D02*
Y463053D01*
X119346Y441990D02*
Y449549D01*
X125645Y439923D02*
X156748D01*
Y461183D01*
X125645D02*
X156748D01*
X116196Y451557D02*
X119346D01*
X116196Y449549D02*
Y451557D01*
Y449549D02*
X119346D01*
X100842Y459116D02*
X119346D01*
X100842Y441990D02*
X119346D01*
X100842Y459116D02*
Y463053D01*
Y438053D02*
Y441990D01*
Y463053D02*
X125645D01*
X100842Y438053D02*
X125645D01*
X119346Y451557D02*
Y459116D01*
Y565730D02*
Y573289D01*
X100842Y552226D02*
X125645D01*
X100842Y577226D02*
X125645D01*
X100842Y552226D02*
Y556163D01*
Y573289D02*
Y577226D01*
Y556163D02*
X119346D01*
X100842Y573289D02*
X119346D01*
X116196Y563722D02*
X119346D01*
X116196D02*
Y565730D01*
X119346D01*
X125645Y575356D02*
X156748D01*
Y554096D02*
Y575356D01*
X125645Y554096D02*
X156748D01*
X119346Y556163D02*
Y563722D01*
X125645Y552226D02*
Y577226D01*
X-0Y556163D02*
Y563722D01*
X-6300Y577226D02*
X18504D01*
X-6300Y552226D02*
X18504D01*
Y573289D02*
Y577226D01*
Y552226D02*
Y556163D01*
X-0Y573289D02*
X18504D01*
X-0Y556163D02*
X18504D01*
X-0Y565730D02*
X3149D01*
Y563722D02*
Y565730D01*
X-0Y563722D02*
X3149D01*
X-37402Y554096D02*
X-6300D01*
X-37402D02*
Y575356D01*
X-6300D01*
X-0Y565730D02*
Y573289D01*
X-6300Y552226D02*
Y577226D01*
M02*
