G04*
G04 #@! TF.GenerationSoftware,Altium Limited,Altium Designer,22.10.1 (41)*
G04*
G04 Layer_Color=8388736*
%FSLAX25Y25*%
%MOIN*%
G70*
G04*
G04 #@! TF.SameCoordinates,10B0A499-9DE9-419A-BA03-DC6469FBBFFB*
G04*
G04*
G04 #@! TF.FilePolarity,Negative*
G04*
G01*
G75*
%ADD40R,0.10630X0.10630*%
G04:AMPARAMS|DCode=41|XSize=12.01mil|YSize=27.56mil|CornerRadius=6mil|HoleSize=0mil|Usage=FLASHONLY|Rotation=0.000|XOffset=0mil|YOffset=0mil|HoleType=Round|Shape=RoundedRectangle|*
%AMROUNDEDRECTD41*
21,1,0.01201,0.01555,0,0,0.0*
21,1,0.00000,0.02756,0,0,0.0*
1,1,0.01201,0.00000,-0.00778*
1,1,0.01201,0.00000,-0.00778*
1,1,0.01201,0.00000,0.00778*
1,1,0.01201,0.00000,0.00778*
%
%ADD41ROUNDEDRECTD41*%
G04:AMPARAMS|DCode=42|XSize=27.56mil|YSize=12.01mil|CornerRadius=6mil|HoleSize=0mil|Usage=FLASHONLY|Rotation=0.000|XOffset=0mil|YOffset=0mil|HoleType=Round|Shape=RoundedRectangle|*
%AMROUNDEDRECTD42*
21,1,0.02756,0.00000,0,0,0.0*
21,1,0.01555,0.01201,0,0,0.0*
1,1,0.01201,0.00778,0.00000*
1,1,0.01201,-0.00778,0.00000*
1,1,0.01201,-0.00778,0.00000*
1,1,0.01201,0.00778,0.00000*
%
%ADD42ROUNDEDRECTD42*%
%ADD43R,0.04343X0.03202*%
%ADD44R,0.20485X0.06312*%
%ADD45R,0.04540X0.04147*%
%ADD46R,0.05748X0.06142*%
%ADD47R,0.03950X0.04343*%
%ADD48R,0.02926X0.02690*%
%ADD49R,0.05918X0.06312*%
%ADD50R,0.04343X0.04737*%
%ADD51R,0.04737X0.04343*%
%ADD52C,0.16016*%
%ADD53R,0.02690X0.02926*%
%ADD54R,0.02598X0.02638*%
%ADD55R,0.02965X0.02926*%
%ADD56R,0.03753X0.03162*%
%ADD57R,0.05079X0.03622*%
%ADD58R,0.03976X0.04370*%
%ADD59R,0.04147X0.04540*%
%ADD60R,0.04343X0.04343*%
%ADD61R,0.07493X0.07493*%
%ADD62R,0.01981X0.03910*%
%ADD63R,0.03910X0.01981*%
%ADD64R,0.02638X0.02598*%
%ADD65R,0.03425X0.02835*%
%ADD66R,0.07493X0.07493*%
%ADD67R,0.01581X0.03353*%
%ADD68R,0.03353X0.01581*%
%ADD69R,0.06115X0.05328*%
%ADD70R,0.02835X0.03425*%
%ADD71R,0.05249X0.03792*%
%ADD72C,0.02208*%
%ADD73C,0.14580*%
%ADD74C,0.16548*%
%ADD75C,0.03162*%
G36*
X149482Y285142D02*
X-439Y285142D01*
X-439Y301073D01*
X149482Y301073D01*
Y285142D01*
D02*
G37*
G36*
X208350Y129535D02*
X-421Y129535D01*
X-421Y145465D01*
X208350Y145465D01*
Y129535D01*
D02*
G37*
G36*
X119748Y442103D02*
X0D01*
X0Y461000D01*
X119748D01*
Y442103D01*
D02*
G37*
G36*
X119661Y557120D02*
X0D01*
Y572396D01*
X119661D01*
Y557120D01*
D02*
G37*
D40*
X67401Y293073D02*
D03*
X99451Y137469D02*
D03*
D41*
X63464Y300454D02*
D03*
X65432D02*
D03*
X67401D02*
D03*
X69369D02*
D03*
X71338D02*
D03*
Y285691D02*
D03*
X69369D02*
D03*
X67401D02*
D03*
X65432D02*
D03*
X63464D02*
D03*
X95514Y130088D02*
D03*
X97483D02*
D03*
X99451D02*
D03*
X101419D02*
D03*
X103388D02*
D03*
Y144851D02*
D03*
X101419D02*
D03*
X99451D02*
D03*
X97483D02*
D03*
X95514D02*
D03*
D42*
X74783Y297009D02*
D03*
Y295041D02*
D03*
Y293073D02*
D03*
Y291104D02*
D03*
Y289136D02*
D03*
X60019D02*
D03*
Y291104D02*
D03*
Y293073D02*
D03*
Y295041D02*
D03*
Y297009D02*
D03*
X92069Y141407D02*
D03*
Y139438D02*
D03*
Y137469D02*
D03*
Y135501D02*
D03*
Y133533D02*
D03*
X106833D02*
D03*
Y135501D02*
D03*
Y137469D02*
D03*
Y139438D02*
D03*
Y141407D02*
D03*
D43*
X1773Y137370D02*
D03*
X206196Y137500D02*
D03*
X147295Y293073D02*
D03*
X1771D02*
D03*
Y451592D02*
D03*
X117574Y450553D02*
D03*
Y564726D02*
D03*
X1771D02*
D03*
D44*
X9843Y148000D02*
D03*
Y126740D02*
D03*
X198126Y126870D02*
D03*
Y148130D02*
D03*
X139224Y282443D02*
D03*
Y303702D02*
D03*
X9842D02*
D03*
Y282443D02*
D03*
Y462222D02*
D03*
Y440962D02*
D03*
X109503Y439923D02*
D03*
Y461183D02*
D03*
Y575356D02*
D03*
Y554096D02*
D03*
X9842D02*
D03*
Y575356D02*
D03*
D45*
X54814Y268651D02*
D03*
Y273769D02*
D03*
X80503Y319092D02*
D03*
Y313974D02*
D03*
X40503Y334033D02*
D03*
Y339151D02*
D03*
X50503Y334033D02*
D03*
Y339151D02*
D03*
X81003Y250033D02*
D03*
Y255151D02*
D03*
X80503Y269033D02*
D03*
Y274151D02*
D03*
Y333533D02*
D03*
Y338651D02*
D03*
X34503Y467033D02*
D03*
Y472151D02*
D03*
X54857Y256913D02*
D03*
Y262031D02*
D03*
X112554Y183048D02*
D03*
Y177930D02*
D03*
X82554Y183548D02*
D03*
Y178430D02*
D03*
X72554Y183548D02*
D03*
Y178430D02*
D03*
X112554Y158371D02*
D03*
Y163489D02*
D03*
X86865Y118166D02*
D03*
Y113048D02*
D03*
X112554Y118548D02*
D03*
Y113430D02*
D03*
X86907Y106428D02*
D03*
Y101310D02*
D03*
X113054Y99548D02*
D03*
Y94430D02*
D03*
D46*
X122404Y182989D02*
D03*
X128703D02*
D03*
X90354Y338592D02*
D03*
D47*
X48729Y470644D02*
D03*
X43808D02*
D03*
X65464Y577092D02*
D03*
X60543D02*
D03*
X41964Y316592D02*
D03*
X37043D02*
D03*
X55964Y319592D02*
D03*
X51043D02*
D03*
X40543Y432092D02*
D03*
X45464D02*
D03*
X82543Y466092D02*
D03*
X87464D02*
D03*
X71043Y472592D02*
D03*
X75964D02*
D03*
X83093Y163989D02*
D03*
X88014D02*
D03*
X69093Y160989D02*
D03*
X74014D02*
D03*
D48*
X70110Y451196D02*
D03*
Y454660D02*
D03*
X50503Y438360D02*
D03*
Y441824D02*
D03*
D49*
X96653Y338592D02*
D03*
D50*
X50346Y327092D02*
D03*
X55661D02*
D03*
X34846Y325092D02*
D03*
X40161D02*
D03*
X86161Y262092D02*
D03*
X80846D02*
D03*
X45161Y424092D02*
D03*
X39846D02*
D03*
X90161Y473592D02*
D03*
X84846D02*
D03*
X87711Y171489D02*
D03*
X82396D02*
D03*
X72211Y169489D02*
D03*
X66896D02*
D03*
X112896Y106489D02*
D03*
X118211D02*
D03*
D51*
X65504Y339435D02*
D03*
Y344750D02*
D03*
X97554Y189147D02*
D03*
Y183832D02*
D03*
D52*
X81500Y602000D02*
D03*
X114504Y257592D02*
D03*
X25000Y411500D02*
D03*
X34000Y489500D02*
D03*
X33500Y602000D02*
D03*
X84000Y489500D02*
D03*
X84000Y419555D02*
D03*
X28000Y256000D02*
D03*
X91000Y355000D02*
D03*
X122771Y199073D02*
D03*
X51271Y102573D02*
D03*
X150271D02*
D03*
D53*
X57236Y304092D02*
D03*
X53771D02*
D03*
X85821Y148489D02*
D03*
X89286D02*
D03*
D54*
X61503Y313128D02*
D03*
Y310057D02*
D03*
X53798Y311810D02*
D03*
Y308739D02*
D03*
X54434Y467038D02*
D03*
Y463967D02*
D03*
X70503Y463557D02*
D03*
Y466628D02*
D03*
X93554Y154454D02*
D03*
Y157525D02*
D03*
X85848Y153136D02*
D03*
Y156207D02*
D03*
D55*
X78311Y450760D02*
D03*
X75240D02*
D03*
X39039Y451592D02*
D03*
X35968D02*
D03*
X79539Y459092D02*
D03*
X76468D02*
D03*
D56*
X87025Y293073D02*
D03*
X91946D02*
D03*
X17040D02*
D03*
X12118D02*
D03*
X51461D02*
D03*
X56382D02*
D03*
X25959Y137370D02*
D03*
X30880D02*
D03*
X114340Y137469D02*
D03*
X119262D02*
D03*
X83690Y137428D02*
D03*
X88611D02*
D03*
D57*
X67503Y313037D02*
D03*
Y306147D02*
D03*
X99554Y157434D02*
D03*
D58*
X75444Y306592D02*
D03*
D59*
X80563D02*
D03*
X107495Y150989D02*
D03*
X112613D02*
D03*
D60*
X121432Y293073D02*
D03*
X127731D02*
D03*
X179305Y137469D02*
D03*
X185604D02*
D03*
D61*
X56825Y564726D02*
D03*
D62*
X55526Y570573D02*
D03*
X58125D02*
D03*
Y558880D02*
D03*
X55526D02*
D03*
D63*
X62672Y566025D02*
D03*
Y563427D02*
D03*
X50979D02*
D03*
Y566025D02*
D03*
D64*
X45539Y438092D02*
D03*
X42468D02*
D03*
D65*
X43240Y461092D02*
D03*
X47767D02*
D03*
D66*
X58003Y450553D02*
D03*
D67*
X55051Y456458D02*
D03*
X57019D02*
D03*
X58988D02*
D03*
X60956D02*
D03*
Y444647D02*
D03*
X58988D02*
D03*
X57019D02*
D03*
X55051D02*
D03*
D68*
X63909Y453506D02*
D03*
Y451537D02*
D03*
Y449569D02*
D03*
Y447600D02*
D03*
X52098D02*
D03*
Y449569D02*
D03*
Y451537D02*
D03*
Y453506D02*
D03*
D69*
X53504Y577147D02*
D03*
Y584037D02*
D03*
D70*
X59504Y461328D02*
D03*
Y465856D02*
D03*
X65342Y461289D02*
D03*
Y465816D02*
D03*
D71*
X99554Y150544D02*
D03*
D72*
X1780Y564735D02*
X51693D01*
X62255Y564733D02*
X117568D01*
X185619Y137485D02*
X206181D01*
X119262Y137469D02*
X179305D01*
X106833D02*
X114340D01*
X88632Y137449D02*
X92049D01*
X30910Y137399D02*
X83661D01*
X1773Y137370D02*
X25959D01*
X64172Y450760D02*
X75240D01*
X78414Y450657D02*
X117471D01*
X74783Y293073D02*
X87025D01*
X1771Y451592D02*
X35968D01*
X127731Y293073D02*
X147295D01*
X91946D02*
X121432D01*
X1771D02*
X12118D01*
X17040D02*
X51461D01*
X56382D02*
X60019D01*
D73*
X99950Y116720D02*
D03*
Y167114D02*
D03*
X67901Y322600D02*
D03*
X67901Y272206D02*
D03*
D74*
X58003Y428198D02*
D03*
X56826Y595632D02*
D03*
X58003Y478986D02*
D03*
X56826Y545238D02*
D03*
D75*
X60711Y309276D02*
D03*
X131289Y186263D02*
D03*
X127515Y186210D02*
D03*
X106771Y553976D02*
D03*
X105586Y575374D02*
D03*
X53255Y463434D02*
D03*
X4322Y554059D02*
D03*
X13717Y462297D02*
D03*
X8913Y462303D02*
D03*
X70719Y293047D02*
D03*
X67296D02*
D03*
X61767Y442684D02*
D03*
X58083Y442410D02*
D03*
X54827Y442537D02*
D03*
X99043Y341487D02*
D03*
X55892Y460297D02*
D03*
X106291Y131321D02*
D03*
X92819Y153140D02*
D03*
X55883Y312198D02*
D03*
X40646Y437947D02*
D03*
X69329Y462277D02*
D03*
X11573Y148325D02*
D03*
X7099D02*
D03*
X2939Y148199D02*
D03*
X11447Y126329D02*
D03*
X7099Y126392D02*
D03*
X2561D02*
D03*
X205534Y148417D02*
D03*
X200821Y148361D02*
D03*
X196276D02*
D03*
X195771Y126872D02*
D03*
X200428Y126816D02*
D03*
X204748Y126872D02*
D03*
X201973Y133113D02*
D03*
X196500Y133000D02*
D03*
X191190Y133007D02*
D03*
X202000Y142000D02*
D03*
X196500D02*
D03*
X191253Y141863D02*
D03*
X186000Y143000D02*
D03*
Y132000D02*
D03*
X112000Y142000D02*
D03*
Y133000D02*
D03*
X173935Y141960D02*
D03*
X167636D02*
D03*
X161336D02*
D03*
X155037D02*
D03*
X148738D02*
D03*
X142439D02*
D03*
X136140D02*
D03*
X129840D02*
D03*
X123541D02*
D03*
X117352Y142004D02*
D03*
X117842Y132779D02*
D03*
X124767Y132979D02*
D03*
X131066D02*
D03*
X137366D02*
D03*
X143665D02*
D03*
X149964D02*
D03*
X156263D02*
D03*
X162563D02*
D03*
X168862D02*
D03*
X174000Y133000D02*
D03*
X180000Y132000D02*
D03*
X179856Y143036D02*
D03*
X88378Y132725D02*
D03*
X80665Y141818D02*
D03*
X75087Y141890D02*
D03*
X68787D02*
D03*
X62488D02*
D03*
X56189D02*
D03*
X49890D02*
D03*
X43591D02*
D03*
X37291D02*
D03*
X33500Y133000D02*
D03*
X40106Y132909D02*
D03*
X46405D02*
D03*
X52705D02*
D03*
X59004D02*
D03*
X65303D02*
D03*
X71602D02*
D03*
X77901D02*
D03*
X83750Y132725D02*
D03*
X86186Y141940D02*
D03*
X6630Y132948D02*
D03*
X12788Y132974D02*
D03*
X19259Y133001D02*
D03*
X25811Y132982D02*
D03*
X30038Y141762D02*
D03*
X23383Y141686D02*
D03*
X17109Y141861D02*
D03*
X10810D02*
D03*
X5500Y142000D02*
D03*
X107743Y112847D02*
D03*
X91739Y114790D02*
D03*
X107784Y100104D02*
D03*
X108568Y167099D02*
D03*
X89334Y152238D02*
D03*
X78299Y288469D02*
D03*
X112294Y446339D02*
D03*
X107292Y446126D02*
D03*
X101655Y446132D02*
D03*
X96062Y446106D02*
D03*
X91099Y446063D02*
D03*
X86092Y445976D02*
D03*
X81271Y446072D02*
D03*
X77271D02*
D03*
X72771D02*
D03*
X112271Y455072D02*
D03*
X107771D02*
D03*
X103271D02*
D03*
X93271D02*
D03*
X107370Y161065D02*
D03*
X99447Y137386D02*
D03*
X99390Y141240D02*
D03*
X102959Y141212D02*
D03*
X102988Y137529D02*
D03*
X103159Y133760D02*
D03*
X99419Y133788D02*
D03*
X95735Y133760D02*
D03*
X95850Y137557D02*
D03*
Y141183D02*
D03*
X47771Y106572D02*
D03*
X46271Y102573D02*
D03*
X47271Y99072D02*
D03*
X51271Y97072D02*
D03*
X55271Y99072D02*
D03*
X56771Y103073D02*
D03*
X55271Y106572D02*
D03*
X51271Y108072D02*
D03*
X106028Y157299D02*
D03*
X108636Y172582D02*
D03*
X102916Y176783D02*
D03*
X95051Y176514D02*
D03*
X89271Y156572D02*
D03*
X79326Y157651D02*
D03*
X78552Y164087D02*
D03*
X77240Y171060D02*
D03*
X77717Y177973D02*
D03*
X99447Y106005D02*
D03*
X106467Y106831D02*
D03*
X102916Y99811D02*
D03*
X94161Y101380D02*
D03*
X93418Y108566D02*
D03*
X97153Y124969D02*
D03*
X118271Y104572D02*
D03*
Y108572D02*
D03*
X102428Y128116D02*
D03*
X84097Y156414D02*
D03*
X89709Y164041D02*
D03*
X68924Y158999D02*
D03*
X68831Y163248D02*
D03*
X88489Y169434D02*
D03*
X88304Y173684D02*
D03*
X66757Y167410D02*
D03*
X66774Y171868D02*
D03*
X100154Y189205D02*
D03*
X95071Y189123D02*
D03*
X131028Y179894D02*
D03*
X127405Y179741D02*
D03*
X106890Y142733D02*
D03*
X92167Y132070D02*
D03*
X91972Y142996D02*
D03*
X103500Y154000D02*
D03*
X94776Y150162D02*
D03*
X137161Y303939D02*
D03*
X141769Y303875D02*
D03*
X145993Y303811D02*
D03*
X138185Y282564D02*
D03*
X142153D02*
D03*
X146121Y282436D02*
D03*
X134271Y288573D02*
D03*
X140271D02*
D03*
X139771Y297572D02*
D03*
X134271D02*
D03*
X129387Y286671D02*
D03*
X124538D02*
D03*
X119931Y286706D02*
D03*
X129000Y299500D02*
D03*
X124053Y299522D02*
D03*
X119238Y299418D02*
D03*
X116086Y288472D02*
D03*
X81771Y288573D02*
D03*
X86771D02*
D03*
X92271D02*
D03*
X78271Y297572D02*
D03*
X83271D02*
D03*
X113727Y297563D02*
D03*
X107428D02*
D03*
X101129D02*
D03*
X94831Y297718D02*
D03*
X88537Y297485D02*
D03*
X98390Y288582D02*
D03*
X104689D02*
D03*
X110988D02*
D03*
X13091Y282119D02*
D03*
X8078D02*
D03*
X2835D02*
D03*
X13840Y303783D02*
D03*
X8424Y303841D02*
D03*
X3066Y303668D02*
D03*
X56485Y288228D02*
D03*
X48061Y297611D02*
D03*
X6271Y298073D02*
D03*
X11322Y298101D02*
D03*
X9023Y288416D02*
D03*
X10912Y456480D02*
D03*
X42008Y297563D02*
D03*
X35709D02*
D03*
X29410D02*
D03*
X23111D02*
D03*
X16829Y298026D02*
D03*
X14180Y288416D02*
D03*
X20477Y288582D02*
D03*
X26777D02*
D03*
X33076D02*
D03*
X39375D02*
D03*
X45674D02*
D03*
X51956Y288119D02*
D03*
X53913Y297898D02*
D03*
X71546Y309599D02*
D03*
X51866Y312309D02*
D03*
X57335Y307736D02*
D03*
X70630Y284496D02*
D03*
X74878Y298411D02*
D03*
X74801Y287826D02*
D03*
X59957D02*
D03*
X59901Y298513D02*
D03*
X73000Y462500D02*
D03*
X79500Y474000D02*
D03*
X48339Y466406D02*
D03*
X42560Y468349D02*
D03*
X42455Y472892D02*
D03*
X105500Y461000D02*
D03*
X110565Y460857D02*
D03*
X115000Y461000D02*
D03*
X106466Y439614D02*
D03*
X111287D02*
D03*
X115718Y439808D02*
D03*
X14025Y440780D02*
D03*
X8743Y440665D02*
D03*
X3805D02*
D03*
X4000Y462500D02*
D03*
X86000Y260000D02*
D03*
Y264000D02*
D03*
X24000Y260000D02*
D03*
X22500Y256000D02*
D03*
X24000Y252500D02*
D03*
X28000Y250500D02*
D03*
X31500Y252500D02*
D03*
X33500Y256500D02*
D03*
X31500Y260000D02*
D03*
X28000Y261500D02*
D03*
X68500Y260000D02*
D03*
X75500Y261500D02*
D03*
X72000Y255500D02*
D03*
X63500Y256500D02*
D03*
X60500Y262500D02*
D03*
X67357Y289517D02*
D03*
X70582Y289621D02*
D03*
X70894Y296660D02*
D03*
X67392Y296799D02*
D03*
X63855Y289413D02*
D03*
Y293054D02*
D03*
X63890Y296764D02*
D03*
X66124Y280887D02*
D03*
X77000Y327500D02*
D03*
X65500Y334500D02*
D03*
X73000D02*
D03*
X59000D02*
D03*
X74822Y316271D02*
D03*
X74774Y312362D02*
D03*
X99131Y335571D02*
D03*
X95462Y335690D02*
D03*
X95403Y341490D02*
D03*
X57511Y319724D02*
D03*
X55686Y324784D02*
D03*
X55633Y329269D02*
D03*
X47500Y314500D02*
D03*
X46000Y321000D02*
D03*
X45000Y327500D02*
D03*
X45500Y334500D02*
D03*
X62929Y306316D02*
D03*
X36679Y314536D02*
D03*
X36781Y318648D02*
D03*
X34885Y322758D02*
D03*
X34793Y327238D02*
D03*
X67500Y345000D02*
D03*
X63500D02*
D03*
X83000Y455000D02*
D03*
X98771Y455072D02*
D03*
X88271D02*
D03*
X74418Y455355D02*
D03*
X68718Y445785D02*
D03*
X78391Y455403D02*
D03*
X44690Y446965D02*
D03*
X46754Y455896D02*
D03*
X41595Y456750D02*
D03*
X7831Y446705D02*
D03*
X14130D02*
D03*
X20429D02*
D03*
X26728D02*
D03*
X33027D02*
D03*
X39317Y447057D02*
D03*
X36099Y456825D02*
D03*
X29810Y456480D02*
D03*
X23510D02*
D03*
X17211D02*
D03*
X6271Y456572D02*
D03*
X63848Y445419D02*
D03*
X74500Y466500D02*
D03*
X80500Y479000D02*
D03*
X66529Y457346D02*
D03*
X64000Y455000D02*
D03*
X39212Y470730D02*
D03*
X39076Y475950D02*
D03*
X81684Y424892D02*
D03*
X78684Y421392D02*
D03*
Y416892D02*
D03*
X82184Y413892D02*
D03*
X86184D02*
D03*
X89184Y416892D02*
D03*
Y421392D02*
D03*
X86184Y424892D02*
D03*
X59896Y448631D02*
D03*
X56075D02*
D03*
X59941Y452565D02*
D03*
X56143Y452520D02*
D03*
X39636Y421675D02*
D03*
X39659Y426176D02*
D03*
X40303Y429892D02*
D03*
Y434082D02*
D03*
X90334Y471310D02*
D03*
X90254Y475789D02*
D03*
X87448Y463657D02*
D03*
X87470Y468295D02*
D03*
X80802Y459084D02*
D03*
X76064Y470345D02*
D03*
X75978Y474601D02*
D03*
X41568Y460446D02*
D03*
X110500Y554000D02*
D03*
X114500D02*
D03*
X109503Y575356D02*
D03*
X114000Y575500D02*
D03*
X8500Y554000D02*
D03*
X13000D02*
D03*
Y575500D02*
D03*
X8500D02*
D03*
X4500D02*
D03*
X49798Y570354D02*
D03*
X50458Y557709D02*
D03*
X63000Y558000D02*
D03*
X68050Y559845D02*
D03*
X74349D02*
D03*
X80649D02*
D03*
X86948D02*
D03*
X93247D02*
D03*
X99546D02*
D03*
X105845D02*
D03*
X112145D02*
D03*
X109317Y569620D02*
D03*
X103018D02*
D03*
X96719D02*
D03*
X90419D02*
D03*
X84120D02*
D03*
X77821D02*
D03*
X71522D02*
D03*
X65306Y570643D02*
D03*
X45431Y569623D02*
D03*
X39132D02*
D03*
X32833D02*
D03*
X26534D02*
D03*
X20234D02*
D03*
X13935D02*
D03*
X7636D02*
D03*
X9445Y559847D02*
D03*
X15744D02*
D03*
X22043D02*
D03*
X28343D02*
D03*
X34642D02*
D03*
X40941D02*
D03*
X47240D02*
D03*
X83500Y607500D02*
D03*
X86500Y604000D02*
D03*
Y599500D02*
D03*
X83500Y596500D02*
D03*
X79500D02*
D03*
X76000Y599500D02*
D03*
Y604000D02*
D03*
X79000Y607500D02*
D03*
X58681Y556995D02*
D03*
X55000Y557000D02*
D03*
X55165Y566396D02*
D03*
X58486Y563068D02*
D03*
X58505Y566419D02*
D03*
X55098Y563012D02*
D03*
X65523Y579596D02*
D03*
X65566Y574730D02*
D03*
M02*
